<svg width="163" height="31" viewBox="0 0 163 31" fill="none" xmlns="http://www.w3.org/2000/svg">
<path d="M4.1123 21.8535C3.8584 21.7656 3.58984 21.7021 3.30664 21.6631C3.02344 21.6143 2.73535 21.5703 2.44238 21.5312C2.15918 21.4824 1.88574 21.4238 1.62207 21.3555C1.3584 21.2871 1.12402 21.1846 0.918945 21.0479C0.713867 20.9014 0.547852 20.7061 0.420898 20.4619C0.303711 20.2178 0.245117 19.9004 0.245117 19.5098V19.1436L0.523438 16.3457C0.5625 16.2676 0.59668 16.209 0.625977 16.1699C0.655273 16.1211 0.71875 16.0967 0.816406 16.0967C1.03125 16.0967 1.1875 16.1895 1.28516 16.375C1.65625 16.9023 1.97852 17.415 2.25195 17.9131C2.53516 18.4111 2.83789 18.9385 3.16016 19.4951C3.19922 19.5928 3.30176 19.6904 3.46777 19.7881C3.64355 19.876 3.84863 19.9688 4.08301 20.0664C4.31738 20.1543 4.57129 20.2373 4.84473 20.3154C5.11816 20.3936 5.37695 20.4619 5.62109 20.5205C5.875 20.5791 6.09961 20.6279 6.29492 20.667C6.5 20.6963 6.65137 20.7109 6.74902 20.7109H7.02734C7.18359 20.7109 7.27148 20.7012 7.29102 20.6816C7.32031 20.6621 7.36914 20.6279 7.4375 20.5791C7.51562 20.5303 7.59375 20.4766 7.67188 20.418C7.75977 20.3594 7.83789 20.3057 7.90625 20.2568C7.98438 20.208 8.03809 20.1738 8.06738 20.1543C8.10645 20.1152 8.1748 20.0762 8.27246 20.0371C8.37012 19.998 8.43848 19.9785 8.47754 19.9785L9.07812 19.8174C9.11719 19.8174 9.20508 19.7148 9.3418 19.5098C9.47852 19.2949 9.62012 19.0605 9.7666 18.8066C9.94238 18.5137 10.1279 18.1768 10.3232 17.7959C10.3232 17.7764 10.3281 17.7227 10.3379 17.6348C10.3477 17.5469 10.3525 17.4541 10.3525 17.3564C10.3623 17.249 10.3721 17.1514 10.3818 17.0635C10.3916 16.9658 10.3965 16.8975 10.3965 16.8584V16.624C10.3965 16.5166 10.3916 16.4238 10.3818 16.3457C10.3818 16.2578 10.3721 16.1748 10.3525 16.0967C10.3428 16.0088 10.3232 15.916 10.2939 15.8184C10.2744 15.7207 10.2451 15.6035 10.2061 15.4668L10.1768 15.3789C10.0986 15.2715 9.99609 15.1738 9.86914 15.0859C9.75195 14.998 9.64453 14.8955 9.54688 14.7783C9.42969 14.6123 9.34668 14.4854 9.29785 14.3975C9.24902 14.3096 9.2002 14.2363 9.15137 14.1777C9.10254 14.1191 9.03418 14.0654 8.94629 14.0166C8.8584 13.9678 8.7168 13.8994 8.52148 13.8115C8.51172 13.8115 8.45801 13.7969 8.36035 13.7676C8.2627 13.7383 8.18945 13.7041 8.14062 13.665C8.00391 13.5869 7.87207 13.5332 7.74512 13.5039C7.61816 13.4648 7.48633 13.4404 7.34961 13.4307C7.22266 13.4111 7.09082 13.3965 6.9541 13.3867C6.81738 13.3672 6.67578 13.333 6.5293 13.2842C6.39258 13.1768 6.28027 13.0693 6.19238 12.9619C6.10449 12.8447 5.97754 12.7471 5.81152 12.6689C5.78223 12.6689 5.72852 12.6641 5.65039 12.6543C5.58203 12.6348 5.50391 12.6152 5.41602 12.5957C5.33789 12.5762 5.25977 12.5615 5.18164 12.5518C5.11328 12.5322 5.06934 12.5225 5.0498 12.5225L4.28809 11.7314C4.15137 11.6338 4.02441 11.5654 3.90723 11.5264C3.7998 11.4775 3.69727 11.4336 3.59961 11.3945C3.50195 11.3555 3.4043 11.3115 3.30664 11.2627C3.21875 11.2139 3.11621 11.1357 2.99902 11.0283C2.91113 10.9502 2.84277 10.8721 2.79395 10.7939C2.75488 10.7158 2.7207 10.6377 2.69141 10.5596C2.66211 10.4814 2.63281 10.4033 2.60352 10.3252C2.58398 10.2471 2.5498 10.1689 2.50098 10.0908C2.48145 10.0127 2.4375 9.91992 2.36914 9.8125C2.31055 9.70508 2.26172 9.62207 2.22266 9.56348C1.99805 9.2998 1.81738 9.0752 1.68066 8.88965C1.54395 8.69434 1.43652 8.50391 1.3584 8.31836C1.29004 8.13281 1.24121 7.93262 1.21191 7.71777C1.19238 7.49316 1.18262 7.20996 1.18262 6.86816C1.18262 6.45801 1.23145 6.0332 1.3291 5.59375C1.42676 5.14453 1.56836 4.70996 1.75391 4.29004C1.93945 3.87012 2.16406 3.47461 2.42773 3.10352C2.70117 2.73242 3.00879 2.41504 3.35059 2.15137C3.44824 2.05371 3.55566 1.98535 3.67285 1.94629C3.7998 1.89746 3.92676 1.86328 4.05371 1.84375C4.19043 1.82422 4.32715 1.81445 4.46387 1.81445C4.60059 1.80469 4.73242 1.78516 4.85938 1.75586C4.98633 1.72656 5.10352 1.68262 5.21094 1.62402C5.32812 1.56543 5.44043 1.50684 5.54785 1.44824C5.66504 1.37988 5.78223 1.32129 5.89941 1.27246C6.02637 1.22363 6.1582 1.19922 6.29492 1.19922C6.71484 1.19922 7.11035 1.22363 7.48145 1.27246C7.8623 1.32129 8.23828 1.38965 8.60938 1.47754C8.86328 1.53613 9.09277 1.61426 9.29785 1.71191C9.5127 1.80957 9.75195 1.8584 10.0156 1.8584C10.2012 1.8584 10.3672 1.80469 10.5137 1.69727C10.6699 1.58984 10.8213 1.47266 10.9678 1.3457C11.1143 1.20898 11.2656 1.08691 11.4219 0.979492C11.5879 0.87207 11.7734 0.818359 11.9785 0.818359C12.1641 0.818359 12.2861 0.90625 12.3447 1.08203C12.4033 1.25781 12.4326 1.42383 12.4326 1.58008L12.1543 2.53223L12.2715 4.26074V4.6416C12.2715 4.90527 12.2617 5.12988 12.2422 5.31543C12.2324 5.49121 12.1934 5.71582 12.125 5.98926C12.1055 6.03809 12.0713 6.08203 12.0225 6.12109C11.9834 6.16016 11.9492 6.17969 11.9199 6.17969C11.9199 6.19922 11.8857 6.20898 11.8174 6.20898C11.7686 6.20898 11.6904 6.14551 11.583 6.01855C11.4854 5.8916 11.3633 5.73047 11.2168 5.53516C11.0801 5.33984 10.9336 5.125 10.7773 4.89062C10.6211 4.65625 10.4648 4.43164 10.3086 4.2168C10.1523 3.99219 10.001 3.79199 9.85449 3.61621C9.71777 3.44043 9.5957 3.31836 9.48828 3.25C9.29297 3.12305 9.07812 3.02051 8.84375 2.94238C8.60938 2.85449 8.36523 2.79102 8.11133 2.75195C7.85742 2.70313 7.60352 2.66895 7.34961 2.64941C7.0957 2.62988 6.86133 2.62012 6.64648 2.62012C6.32422 2.62012 6.0459 2.64941 5.81152 2.70801C5.57715 2.7666 5.37207 2.85937 5.19629 2.98633C5.02051 3.11328 4.86426 3.2793 4.72754 3.48438C4.59082 3.67969 4.46387 3.91406 4.34668 4.1875C4.24902 4.40234 4.16602 4.57324 4.09766 4.7002C4.03906 4.82715 3.98535 4.94434 3.93652 5.05176C3.89746 5.15918 3.86816 5.27637 3.84863 5.40332C3.8291 5.52051 3.81934 5.68164 3.81934 5.88672C3.81934 6.4043 3.90723 6.85352 4.08301 7.23438C4.25879 7.61523 4.49316 7.94727 4.78613 8.23047C5.0791 8.50391 5.4209 8.7334 5.81152 8.91895C6.20215 9.09473 6.61719 9.24609 7.05664 9.37305L7.20312 9.47559C7.4375 9.62207 7.64258 9.74902 7.81836 9.85645C8.00391 9.9541 8.17969 10.0469 8.3457 10.1348C8.51172 10.2129 8.68262 10.291 8.8584 10.3691C9.04395 10.4473 9.25391 10.54 9.48828 10.6475L11.1875 11.7314C11.207 11.7412 11.2266 11.7607 11.2461 11.79C11.2754 11.8096 11.3047 11.8291 11.334 11.8486C11.373 11.8779 11.4072 11.9072 11.4365 11.9365L11.7002 12.6689C11.7393 12.7373 11.7734 12.8154 11.8027 12.9033C11.8418 12.9814 11.8809 13.04 11.9199 13.0791C11.9492 13.0986 11.998 13.1475 12.0664 13.2256C12.1348 13.3037 12.2031 13.3916 12.2715 13.4893C12.3496 13.5771 12.4131 13.665 12.4619 13.7529C12.5205 13.8311 12.5498 13.8848 12.5498 13.9141C12.5791 13.9727 12.6133 14.0605 12.6523 14.1777C12.7012 14.2852 12.7451 14.3975 12.7842 14.5146C12.833 14.6318 12.8721 14.7441 12.9014 14.8516C12.9404 14.959 12.96 15.0371 12.96 15.0859V17.2393C12.96 17.249 12.9355 17.3125 12.8867 17.4297C12.8477 17.5469 12.8037 17.6445 12.7549 17.7227C12.7256 17.7324 12.7012 17.7568 12.6816 17.7959C12.6719 17.8154 12.6621 17.8398 12.6523 17.8691C12.6426 17.8984 12.6182 17.9619 12.5791 18.0596C12.5498 18.1572 12.5156 18.2646 12.4766 18.3818C12.4375 18.499 12.3984 18.6064 12.3594 18.7041C12.3203 18.8018 12.291 18.8604 12.2715 18.8799C12.2422 18.9678 12.1885 19.0605 12.1104 19.1582C12.042 19.2559 11.9639 19.3486 11.876 19.4365C11.7881 19.5244 11.7002 19.6025 11.6123 19.6709C11.5342 19.7393 11.4756 19.7881 11.4365 19.8174C11.3486 19.9346 11.2998 20.0615 11.29 20.1982C11.2803 20.335 11.2217 20.4375 11.1143 20.5059C10.7334 20.6426 10.4209 20.7988 10.1768 20.9746C9.93262 21.1406 9.69824 21.3018 9.47363 21.458C9.25879 21.6045 9.0293 21.7314 8.78516 21.8389C8.54102 21.9463 8.2334 22 7.8623 22H7.68652C7.42285 21.9805 7.24707 21.9707 7.15918 21.9707C7.08105 21.9609 7.02246 21.9561 6.9834 21.9561L4.1123 21.8535ZM16.4609 18.8359C16.4609 18.7676 16.4512 18.6797 16.4316 18.5723C16.4121 18.4648 16.3975 18.3916 16.3877 18.3525C16.3682 18.3232 16.3193 18.2793 16.2412 18.2207C16.1631 18.1523 16.1191 18.1133 16.1094 18.1035C16.0605 18.0254 16.0215 17.9326 15.9922 17.8252C15.9727 17.7178 15.9531 17.625 15.9336 17.5469C15.9141 17.4785 15.8799 17.3809 15.8311 17.2539C15.792 17.1172 15.7627 17.0342 15.7432 17.0049C15.7432 16.9854 15.7188 16.9414 15.6699 16.873C15.6211 16.7949 15.5869 16.7461 15.5674 16.7266L15.4941 16.5801C15.4941 16.5508 15.5039 16.4873 15.5234 16.3896C15.5527 16.292 15.5674 16.2383 15.5674 16.2285C15.5674 16.1797 15.5723 16.082 15.582 15.9355C15.5918 15.7891 15.5967 15.6328 15.5967 15.4668C15.5967 15.3008 15.5918 15.1494 15.582 15.0127C15.5723 14.8662 15.5674 14.7637 15.5674 14.7051L15.6699 14.4268C15.6699 14.417 15.6699 14.3828 15.6699 14.3242C15.6797 14.2559 15.6895 14.1875 15.6992 14.1191C15.709 14.041 15.7188 13.9727 15.7285 13.9141C15.7383 13.8457 15.7432 13.8018 15.7432 13.7822C15.7627 13.7432 15.8164 13.6699 15.9043 13.5625C15.9922 13.4551 16.0605 13.377 16.1094 13.3281C16.1094 13.3184 16.0947 13.2842 16.0654 13.2256C16.0361 13.1572 16.0215 13.1084 16.0215 13.0791C16.0117 13.0791 16.0068 13.0742 16.0068 13.0645V13.0352L16.0215 12.9766C16.0996 12.8398 16.1924 12.6885 16.2998 12.5225C16.4072 12.3467 16.5293 12.2051 16.666 12.0977C16.7734 12 16.876 11.917 16.9736 11.8486C17.0811 11.7705 17.1787 11.6729 17.2666 11.5557C17.3545 11.4482 17.4277 11.3262 17.4863 11.1895C17.5547 11.043 17.6328 10.9062 17.7207 10.7793C17.7207 10.7598 17.7305 10.7402 17.75 10.7207C17.7695 10.7012 17.7891 10.6865 17.8086 10.6768C18.0234 10.5205 18.2432 10.3545 18.4678 10.1787C18.6924 9.99316 18.917 9.83691 19.1416 9.70996C19.1514 9.7002 19.1807 9.68066 19.2295 9.65137C19.2881 9.62207 19.3467 9.59277 19.4053 9.56348C19.4736 9.53418 19.5322 9.50977 19.5811 9.49023C19.6299 9.46094 19.6641 9.44141 19.6836 9.43164L20.0352 9.15332C20.0645 9.14355 20.123 9.13867 20.2109 9.13867C20.2988 9.12891 20.3916 9.11914 20.4893 9.10938C20.5869 9.09961 20.6797 9.09473 20.7676 9.09473C20.8555 9.08496 20.9141 9.08008 20.9434 9.08008C20.9531 9.07031 20.9775 9.05566 21.0166 9.03613C21.0557 9.0166 21.0996 8.99707 21.1484 8.97754C21.1973 8.95801 21.2412 8.94336 21.2803 8.93359C21.3291 8.91406 21.3584 8.9043 21.3682 8.9043C21.5342 8.85547 21.7197 8.81152 21.9248 8.77246C22.1396 8.72363 22.335 8.69922 22.5107 8.69922C22.7549 8.69922 22.9941 8.74805 23.2285 8.8457C23.4727 8.93359 23.7168 9.00195 23.9609 9.05078C24.2246 9.10938 24.4883 9.16797 24.752 9.22656C25.0156 9.27539 25.2744 9.33398 25.5283 9.40234C25.792 9.4707 26.0459 9.55859 26.29 9.66602C26.5342 9.76367 26.7734 9.89551 27.0078 10.0615C27.0176 10.0713 27.042 10.1006 27.0811 10.1494C27.1201 10.1885 27.1641 10.2324 27.2129 10.2812C27.2617 10.3301 27.3105 10.3789 27.3594 10.4277C27.4082 10.4668 27.4424 10.4912 27.4619 10.501C27.4717 10.5107 27.5254 10.5254 27.623 10.5449C27.7305 10.5645 27.7939 10.5742 27.8135 10.5742C27.8525 10.6035 27.8818 10.6475 27.9014 10.7061C27.9209 10.7549 27.9355 10.8135 27.9453 10.8818C27.9648 10.9404 27.9795 10.999 27.9893 11.0576C28.0088 11.1162 28.0332 11.165 28.0625 11.2041C28.0723 11.2139 28.0869 11.2383 28.1064 11.2773C28.1357 11.3164 28.165 11.3555 28.1943 11.3945C28.2334 11.4336 28.2627 11.4727 28.2822 11.5117C28.3115 11.541 28.3311 11.5557 28.3408 11.5557L28.4141 12.0098C28.4434 12.0586 28.502 12.127 28.5898 12.2148C28.6875 12.3027 28.751 12.3564 28.7803 12.376V13.1816C28.7803 13.25 28.7998 13.333 28.8389 13.4307C28.8877 13.5283 28.9365 13.6309 28.9854 13.7383C29.0342 13.8457 29.083 13.9531 29.1318 14.0605C29.1807 14.168 29.2148 14.2656 29.2344 14.3535C29.2637 14.5 29.2832 14.627 29.293 14.7344C29.3027 14.8418 29.3125 14.9492 29.3223 15.0566C29.332 15.1543 29.3369 15.2568 29.3369 15.3643C29.3369 15.4717 29.3369 15.5986 29.3369 15.7451V16.3018C29.3369 16.3213 29.3223 16.3994 29.293 16.5361C29.2637 16.6631 29.2441 16.7607 29.2344 16.8291C29.2148 16.8877 29.1953 16.9609 29.1758 17.0488C29.1562 17.1367 29.1367 17.2246 29.1172 17.3125C29.1074 17.4004 29.0928 17.4785 29.0732 17.5469C29.0635 17.6055 29.0586 17.6348 29.0586 17.6348C29.0391 17.6641 29 17.7227 28.9414 17.8105C28.8828 17.8984 28.8145 17.9961 28.7363 18.1035C28.668 18.2012 28.5996 18.2939 28.5312 18.3818C28.4727 18.46 28.4336 18.5088 28.4141 18.5283C28.4141 18.5381 28.3945 18.5723 28.3555 18.6309C28.3262 18.6895 28.292 18.7578 28.2529 18.8359C28.2139 18.9043 28.1748 18.9727 28.1357 19.041C28.0967 19.0996 28.0723 19.1387 28.0625 19.1582C27.9355 19.334 27.7891 19.5 27.623 19.6562C27.4668 19.8027 27.3203 19.959 27.1836 20.125C27.0957 20.2422 27.0371 20.3252 27.0078 20.374C26.9785 20.4229 26.915 20.4912 26.8174 20.5791C26.6807 20.6865 26.5537 20.7695 26.4365 20.8281C26.3193 20.8867 26.2021 20.9795 26.085 21.1064C26.085 21.126 26.0654 21.1748 26.0264 21.2529C25.9873 21.3311 25.958 21.3701 25.9385 21.3701C25.9189 21.3799 25.8848 21.3896 25.8359 21.3994C25.7871 21.4092 25.7285 21.4189 25.6602 21.4287C25.6016 21.4385 25.543 21.4482 25.4844 21.458C25.4355 21.458 25.4014 21.4629 25.3818 21.4727C25.3232 21.502 25.2158 21.5508 25.0596 21.6191C24.9131 21.6777 24.752 21.7461 24.5762 21.8242C24.4102 21.8926 24.249 21.9609 24.0928 22.0293C23.9463 22.1074 23.8438 22.166 23.7852 22.2051H22.9209C22.0615 22.2051 21.2168 22.0537 20.3867 21.751L20.2109 21.6484C20.1914 21.6191 20.167 21.5898 20.1377 21.5605C20.0791 21.502 20.0449 21.4727 20.0352 21.4727C20.0254 21.4629 19.9961 21.4531 19.9473 21.4434C19.9082 21.4336 19.8643 21.4238 19.8154 21.4141C19.7666 21.4043 19.7178 21.3945 19.6689 21.3848C19.6201 21.375 19.5908 21.3701 19.5811 21.3701C19.2295 21.292 18.9121 21.1602 18.6289 20.9746C18.3555 20.7891 18.1016 20.5791 17.8672 20.3447C17.6328 20.1104 17.4033 19.8662 17.1787 19.6123C16.9541 19.3486 16.7148 19.1045 16.4609 18.8799V18.8359ZM19.8594 19.7002C19.8398 19.7295 19.8301 19.7686 19.8301 19.8174C19.8301 19.8955 19.8545 19.9639 19.9033 20.0225C19.9619 20.0811 20.0254 20.1348 20.0938 20.1836C20.1621 20.2227 20.2305 20.2617 20.2988 20.3008C20.377 20.3398 20.4404 20.374 20.4893 20.4033C20.5869 20.4814 20.6846 20.5693 20.7822 20.667C20.8896 20.7549 20.9971 20.8428 21.1045 20.9307C21.2217 21.0088 21.3389 21.0771 21.4561 21.1357C21.5732 21.1846 21.7051 21.209 21.8516 21.209C21.959 21.2285 22.0615 21.2432 22.1592 21.2529C22.2568 21.2627 22.3594 21.2676 22.4668 21.2676C22.5547 21.2676 22.6377 21.2627 22.7158 21.2529C22.8037 21.2432 22.8867 21.2285 22.9648 21.209L23.2432 21.1064L23.6533 21.0918L24.0635 21.1064C24.083 21.0967 24.1074 21.0869 24.1367 21.0771C24.1758 21.0674 24.21 21.0479 24.2393 21.0186C24.2686 20.999 24.3076 20.9795 24.3564 20.96C24.4053 20.9307 24.4541 20.9014 24.5029 20.8721C24.5518 20.833 24.6055 20.7939 24.6641 20.7549C24.6836 20.7451 24.7178 20.7158 24.7666 20.667C24.8252 20.6084 24.8838 20.5498 24.9424 20.4912C25.001 20.4326 25.0547 20.3789 25.1035 20.3301C25.1523 20.2715 25.1865 20.2373 25.2061 20.2275L25.4844 20.0518C25.5527 19.9834 25.6406 19.8906 25.748 19.7734C25.8555 19.6465 25.958 19.5146 26.0557 19.3779C26.1533 19.2314 26.2363 19.0898 26.3047 18.9531C26.3828 18.8164 26.4268 18.6992 26.4365 18.6016C26.4463 18.5723 26.4561 18.5283 26.4658 18.4697C26.4854 18.4111 26.5 18.3477 26.5098 18.2793C26.5195 18.2109 26.5244 18.1523 26.5244 18.1035C26.5342 18.0449 26.5391 18.0107 26.5391 18.001C26.5977 17.4443 26.627 16.9023 26.627 16.375C26.627 15.9551 26.5977 15.54 26.5391 15.1299C26.5 15.0713 26.4756 15.0078 26.4658 14.9395C26.4658 14.8711 26.4658 14.7979 26.4658 14.7197V14.3682C26.4658 14.2705 26.4561 14.1973 26.4365 14.1484C26.4268 14.0312 26.3779 13.9287 26.29 13.8408C26.2021 13.7432 26.1338 13.6406 26.085 13.5332C26.0068 13.3574 25.9434 13.1963 25.8945 13.0498C25.8555 12.8936 25.8018 12.7275 25.7334 12.5518C25.7236 12.5322 25.7139 12.5078 25.7041 12.4785C25.6943 12.4492 25.6797 12.415 25.6602 12.376L25.3818 11.9072C25.3818 11.8975 25.3721 11.8438 25.3525 11.7461C25.333 11.6484 25.3184 11.585 25.3086 11.5557C25.1035 11.2725 24.8447 11.0625 24.5322 10.9258C24.2295 10.7793 23.9219 10.6377 23.6094 10.501C23.5801 10.4814 23.5264 10.4619 23.4482 10.4424C23.3799 10.4229 23.3408 10.4131 23.3311 10.4131H22.7158L22.2617 10.3105H21.3682L20.8408 10.5742C20.7334 10.623 20.6406 10.6523 20.5625 10.6621C20.4844 10.6719 20.4014 10.7109 20.3135 10.7793C20.1475 10.8867 19.9863 11.0039 19.8301 11.1309C19.6738 11.248 19.5029 11.3652 19.3174 11.4824C19.3076 11.4824 19.2979 11.4873 19.2881 11.4971C19.2881 11.5068 19.2783 11.5166 19.2588 11.5264C19.2393 11.5361 19.2246 11.5459 19.2148 11.5557C19.2148 11.5752 19.21 11.6094 19.2002 11.6582C19.2002 11.6973 19.1953 11.7412 19.1855 11.79C19.1758 11.8389 19.166 11.8877 19.1562 11.9365C19.1562 11.9756 19.1514 12 19.1416 12.0098L18.9658 12.1855C18.9365 12.2246 18.9023 12.2832 18.8633 12.3613C18.834 12.4297 18.7998 12.5029 18.7607 12.5811C18.7217 12.6494 18.6875 12.7178 18.6582 12.7861C18.6387 12.8447 18.624 12.8838 18.6143 12.9033V13.3281C18.6045 13.3477 18.5898 13.3867 18.5703 13.4453C18.5508 13.5039 18.5312 13.5625 18.5117 13.6211C18.4922 13.6797 18.4727 13.7383 18.4531 13.7969C18.4434 13.8457 18.4385 13.875 18.4385 13.8848V14.0166L18.6143 14.8809C18.6143 14.9883 18.585 15.0811 18.5264 15.1592C18.4678 15.2275 18.4385 15.3203 18.4385 15.4375C18.4385 15.75 18.4873 16.0234 18.585 16.2578C18.6826 16.4824 18.751 16.7314 18.79 17.0049L18.9658 18.6016L19.1416 18.8799C19.1514 18.8896 19.166 18.9238 19.1855 18.9824C19.1953 19.0117 19.2051 19.0361 19.2148 19.0557L19.8594 19.7002ZM33.3359 18.0742C33.3359 18.0449 33.3262 17.9668 33.3066 17.8398C33.2969 17.7129 33.2822 17.5762 33.2627 17.4297C33.2529 17.2832 33.2334 17.1367 33.2041 16.9902C33.1846 16.8438 33.1699 16.7314 33.1602 16.6533V16.4775L33.3359 15.9502V13.9727C33.2969 13.8945 33.2725 13.8408 33.2627 13.8115C33.2627 13.7725 33.2627 13.7334 33.2627 13.6943V13.3574C33.2139 12.918 33.1309 12.498 33.0137 12.0977C32.8965 11.6875 32.7695 11.2725 32.6328 10.8525C32.5254 10.7354 32.3936 10.6377 32.2373 10.5596C32.0908 10.4814 31.9834 10.374 31.915 10.2373C31.8467 10.1006 31.749 9.99316 31.6221 9.91504C31.5049 9.83691 31.3877 9.76855 31.2705 9.70996C31.1533 9.65137 31.0508 9.59766 30.9629 9.54883C30.875 9.49023 30.8311 9.41699 30.8311 9.3291C30.8311 9.12402 30.9141 8.99707 31.0801 8.94824C31.2559 8.89941 31.4414 8.875 31.6367 8.875H32.0908C32.1104 8.875 32.1543 8.86523 32.2227 8.8457C32.3008 8.81641 32.3496 8.80176 32.3691 8.80176C32.3984 8.79199 32.4521 8.78223 32.5303 8.77246C32.6182 8.7627 32.7109 8.75293 32.8086 8.74316C32.9062 8.7334 32.9941 8.72852 33.0723 8.72852C33.1602 8.71875 33.2236 8.71387 33.2627 8.71387H33.4385C33.4873 8.71387 33.5312 8.71387 33.5703 8.71387C33.6191 8.7041 33.6582 8.69922 33.6875 8.69922C33.7559 8.69922 33.8438 8.7041 33.9512 8.71387C34.0684 8.71387 34.1367 8.71387 34.1562 8.71387L35.3135 8.80176C35.3428 8.80176 35.4209 8.79688 35.5479 8.78711C35.6846 8.76758 35.8311 8.74805 35.9873 8.72852C36.1436 8.69922 36.2852 8.6748 36.4121 8.65527C36.5488 8.63574 36.6318 8.62598 36.6611 8.62598H36.6904C36.915 8.62598 37.1006 8.7041 37.2471 8.86035C37.3936 9.00684 37.4668 9.17773 37.4668 9.37305C37.4668 9.53906 37.4033 9.6709 37.2764 9.76855C37.1592 9.86621 37.0127 9.94922 36.8369 10.0176C36.6709 10.0859 36.4951 10.1494 36.3096 10.208C36.124 10.2568 35.9678 10.3203 35.8408 10.3984C35.8115 10.4375 35.7725 10.4863 35.7236 10.5449C35.6748 10.6035 35.6211 10.6621 35.5625 10.7207C35.5137 10.7793 35.4697 10.833 35.4307 10.8818C35.4014 10.9209 35.3867 10.9453 35.3867 10.9551C35.3867 10.9551 35.3818 10.9844 35.3721 11.043C35.3623 11.0918 35.3525 11.1504 35.3428 11.2188C35.333 11.2773 35.3232 11.3359 35.3135 11.3945C35.3135 11.4434 35.3135 11.4727 35.3135 11.4824L35.2109 11.834V14.6025L35.3135 14.9541V16.3018C35.333 16.4775 35.3672 16.6387 35.416 16.7852C35.4648 16.9316 35.4893 17.0879 35.4893 17.2539L35.3867 18.25C35.4062 18.2695 35.4258 18.3037 35.4453 18.3525C35.4648 18.4014 35.4795 18.4258 35.4893 18.4258C35.5088 18.4551 35.543 18.499 35.5918 18.5576C35.6504 18.6162 35.7139 18.6797 35.7822 18.748C35.8506 18.8066 35.9141 18.8652 35.9727 18.9238C36.0312 18.9824 36.0752 19.0264 36.1045 19.0557C36.1143 19.0557 36.1436 19.0703 36.1924 19.0996C36.251 19.1289 36.29 19.1484 36.3096 19.1582C36.3291 19.1777 36.3779 19.2168 36.4561 19.2754C36.5439 19.334 36.6367 19.3975 36.7344 19.4658C36.832 19.5342 36.9248 19.6025 37.0127 19.6709C37.1006 19.7295 37.1592 19.7637 37.1885 19.7734C37.3643 19.8906 37.5303 19.9736 37.6865 20.0225C37.8428 20.0713 37.999 20.1104 38.1553 20.1396C38.3213 20.1592 38.4922 20.1738 38.668 20.1836C38.8438 20.1836 39.0342 20.1982 39.2393 20.2275C39.376 20.2471 39.5078 20.2812 39.6348 20.3301C39.7617 20.3789 39.8936 20.4033 40.0303 20.4033L40.5869 20.3008L41.29 20.4033C41.5439 20.3154 41.749 20.208 41.9053 20.0811C42.0615 19.9541 42.2471 19.793 42.4619 19.5977C42.5986 19.4707 42.667 19.3096 42.667 19.1143C42.667 19.0459 42.6719 18.9775 42.6816 18.9092C42.7012 18.8408 42.7207 18.7383 42.7402 18.6016C42.7988 18.5039 42.8428 18.4062 42.8721 18.3086C42.9014 18.2109 42.9258 18.1182 42.9453 18.0303C42.9648 17.9326 42.9893 17.835 43.0186 17.7373C43.0479 17.6396 43.0967 17.5469 43.165 17.459V16.1699C43.165 15.9062 43.209 15.6572 43.2969 15.4229C43.3945 15.1787 43.4434 14.915 43.4434 14.6318C43.4434 14.5244 43.4385 14.4268 43.4287 14.3389C43.4287 14.2412 43.4189 14.124 43.3994 13.9873C43.3994 13.7725 43.3945 13.5771 43.3848 13.4014C43.375 13.2158 43.3652 13.0303 43.3555 12.8447C43.3457 12.6494 43.3359 12.4395 43.3262 12.2148C43.3164 11.9805 43.3066 11.7021 43.2969 11.3799C43.248 11.2529 43.1992 11.1113 43.1504 10.9551C43.1113 10.7988 43.0234 10.6816 42.8867 10.6035C42.877 10.5938 42.8477 10.5742 42.7988 10.5449C42.75 10.5156 42.6963 10.4863 42.6377 10.457C42.5889 10.4277 42.5352 10.4033 42.4766 10.3838C42.4277 10.3545 42.3887 10.3301 42.3594 10.3105C42.2422 10.252 42.0762 10.2031 41.8613 10.1641C41.6562 10.1152 41.4512 10.0566 41.2461 9.98828C41.041 9.91016 40.8604 9.82227 40.7041 9.72461C40.5576 9.61719 40.4844 9.47559 40.4844 9.2998C40.4844 9.11426 40.5283 8.96777 40.6162 8.86035C40.7041 8.75293 40.8164 8.6748 40.9531 8.62598C41.0996 8.57715 41.2559 8.54785 41.4219 8.53809C41.5879 8.52832 41.749 8.52344 41.9053 8.52344H42.5352L42.9893 8.62598H45.1426C45.1621 8.63574 45.2158 8.65039 45.3037 8.66992C45.3916 8.68945 45.46 8.7041 45.5088 8.71387C45.5479 8.72363 45.6309 8.73828 45.7578 8.75781C45.8848 8.76758 46.0166 8.78223 46.1533 8.80176C46.2998 8.82129 46.4365 8.84082 46.5635 8.86035C46.6904 8.87012 46.7783 8.875 46.8271 8.875C46.9248 8.91406 46.9785 8.96777 46.9883 9.03613C47.0078 9.10449 47.0176 9.17773 47.0176 9.25586V9.2998C47.0176 9.39746 46.998 9.47559 46.959 9.53418C46.9297 9.58301 46.8906 9.63184 46.8418 9.68066C46.793 9.71973 46.7344 9.76367 46.666 9.8125C46.5977 9.85156 46.5293 9.90039 46.4609 9.95898C46.4316 9.98828 46.3682 10.0518 46.2705 10.1494C46.1826 10.2373 46.085 10.335 45.9775 10.4424C45.8799 10.5498 45.7822 10.6523 45.6846 10.75C45.5967 10.8477 45.5381 10.916 45.5088 10.9551C45.3916 11.0625 45.2598 11.209 45.1133 11.3945C44.9668 11.5703 44.8838 11.7412 44.8643 11.9072L44.5859 14.4268C44.5176 14.5342 44.4834 14.6611 44.4834 14.8076L44.5127 15.2324C44.5029 15.252 44.4932 15.3008 44.4834 15.3789C44.4736 15.457 44.4639 15.54 44.4541 15.6279C44.4541 15.7158 44.4492 15.8037 44.4395 15.8916C44.4297 15.9697 44.4199 16.0186 44.4102 16.0381C44.3906 16.4385 44.3809 16.8047 44.3809 17.1367C44.3809 17.459 44.3613 17.7715 44.3223 18.0742C44.2832 18.3672 44.2051 18.6602 44.0879 18.9531C43.9707 19.2363 43.7852 19.5439 43.5312 19.876L43.165 20.2275C43.1357 20.2568 43.0869 20.3105 43.0186 20.3887C42.9502 20.4668 42.877 20.5498 42.7988 20.6377C42.7207 20.7256 42.6426 20.8086 42.5645 20.8867C42.4863 20.9551 42.4277 21.0039 42.3887 21.0332C42.3105 21.0332 42.2129 21.043 42.0957 21.0625C41.9883 21.0723 41.9248 21.0869 41.9053 21.1064C41.8857 21.126 41.8516 21.165 41.8027 21.2236C41.7539 21.2725 41.7002 21.3311 41.6416 21.3994C41.583 21.458 41.5293 21.5117 41.4805 21.5605C41.4316 21.6094 41.3975 21.6387 41.3779 21.6484C41.3584 21.6582 41.3242 21.6777 41.2754 21.707C41.2363 21.7363 41.1875 21.7656 41.1289 21.7949C41.0703 21.8242 41.0117 21.8535 40.9531 21.8828C40.9043 21.9023 40.8652 21.917 40.8359 21.9268C40.8262 21.9365 40.792 21.9463 40.7334 21.9561C40.6846 21.9658 40.6309 21.9756 40.5723 21.9854C40.5137 21.9854 40.4551 21.9902 40.3965 22C40.3477 22 40.3184 22 40.3086 22C40.2891 22.0098 40.2402 22.0244 40.1621 22.0439C40.084 22.0732 40.001 22.1025 39.9131 22.1318C39.8252 22.1709 39.7373 22.2002 39.6494 22.2197C39.5713 22.249 39.5225 22.2686 39.5029 22.2783C39.4346 22.2881 39.3662 22.293 39.2979 22.293C39.2393 22.3027 39.1807 22.3076 39.1221 22.3076C39.0635 22.3076 39.0195 22.3076 38.9902 22.3076C38.6777 22.3076 38.4141 22.2637 38.1992 22.1758C37.9844 22.0977 37.7402 22.0391 37.4668 22H36.9102C36.7148 21.9805 36.5146 21.9365 36.3096 21.8682C36.1045 21.7998 35.9189 21.7266 35.7529 21.6484C35.6943 21.6191 35.6162 21.585 35.5186 21.5459C35.4209 21.4971 35.3232 21.4482 35.2256 21.3994C35.1377 21.3506 35.0547 21.3115 34.9766 21.2822C34.9082 21.2432 34.8691 21.2188 34.8594 21.209C34.8496 21.1992 34.8203 21.165 34.7715 21.1064C34.7324 21.0479 34.6885 20.9844 34.6396 20.916C34.5908 20.8379 34.542 20.7695 34.4932 20.7109C34.4541 20.6426 34.4346 20.5986 34.4346 20.5791C34.2783 20.4033 34.1221 20.2373 33.9658 20.0811C33.8193 19.9248 33.7021 19.7344 33.6143 19.5098L33.3359 18.0742ZM71.9639 21.2676C71.9639 21.1113 71.998 20.9453 72.0664 20.7695C72.1445 20.5938 72.2617 20.5059 72.418 20.5059L73.6338 20.4033C73.8779 20.3545 74.1172 20.3105 74.3516 20.2715C74.5859 20.2324 74.8105 20.1836 75.0254 20.125C75.25 20.0566 75.46 19.9688 75.6553 19.8613C75.8506 19.7539 76.0312 19.5977 76.1973 19.3926C76.2363 19.3242 76.2656 19.2607 76.2852 19.2021C76.3145 19.1338 76.3291 19.0605 76.3291 18.9824C76.3291 18.8262 76.3682 18.6846 76.4463 18.5576C76.4463 18.3135 76.4414 18.0938 76.4316 17.8984C76.4316 17.6934 76.4121 17.4639 76.373 17.21C76.3535 17.0928 76.3438 16.9951 76.3438 16.917C76.3438 16.8389 76.3438 16.7754 76.3438 16.7266C76.3438 16.5703 76.3486 16.4629 76.3584 16.4043C76.3682 16.3359 76.3975 16.2236 76.4463 16.0674C76.4463 15.7842 76.4414 15.5498 76.4316 15.3643C76.4219 15.1689 76.417 14.9834 76.417 14.8076C76.417 14.4756 76.4707 14.1338 76.5781 13.7822L76.4463 11.6143C76.4268 11.5752 76.4072 11.4971 76.3877 11.3799C76.3779 11.2627 76.373 11.1797 76.373 11.1309C76.4219 11.0137 76.4658 10.8867 76.5049 10.75C76.5537 10.6133 76.5781 10.4619 76.5781 10.2959C76.5488 10.0127 76.5293 9.73926 76.5195 9.47559C76.5195 9.21191 76.4951 8.93359 76.4463 8.64062C76.4268 8.5625 76.3926 8.49902 76.3438 8.4502C76.2949 8.40137 76.2705 8.33301 76.2705 8.24512C76.2705 8.1377 76.2949 8.06445 76.3438 8.02539C76.3926 7.97656 76.4268 7.92773 76.4463 7.87891V7.17578C76.4463 6.9707 76.4414 6.74121 76.4316 6.4873C76.4316 6.22363 76.417 5.95508 76.3877 5.68164C76.3682 5.4082 76.3291 5.13477 76.2705 4.86133C76.2119 4.57813 76.1289 4.30957 76.0215 4.05566C75.9727 4.0166 75.9043 3.96777 75.8164 3.90918C75.7285 3.84082 75.6406 3.77246 75.5527 3.7041C75.4746 3.63574 75.4014 3.57715 75.333 3.52832C75.2744 3.47949 75.2402 3.45508 75.2305 3.45508C75.1426 3.38672 75.0156 3.32812 74.8496 3.2793C74.6934 3.2207 74.5176 3.16699 74.3223 3.11816C74.127 3.05957 73.9268 3.00098 73.7217 2.94238C73.5264 2.88379 73.3457 2.81543 73.1797 2.7373C73.0137 2.64941 72.877 2.55176 72.7695 2.44434C72.6719 2.32715 72.623 2.19043 72.623 2.03418C72.623 1.97559 72.6572 1.92676 72.7256 1.8877C72.7939 1.84863 72.877 1.81934 72.9746 1.7998C73.0723 1.77051 73.165 1.75098 73.2529 1.74121C73.3408 1.73145 73.4092 1.72656 73.458 1.72656C73.5752 1.74609 73.6631 1.75586 73.7217 1.75586C73.7803 1.75586 73.8291 1.75586 73.8682 1.75586C73.9463 1.75586 73.9951 1.74609 74.0146 1.72656C74.3467 1.70703 74.6885 1.69238 75.04 1.68262C75.3916 1.66309 75.7432 1.65332 76.0947 1.65332C76.4268 1.65332 76.7441 1.66309 77.0469 1.68262C77.3594 1.69238 77.7012 1.70703 78.0723 1.72656C78.1113 1.77539 78.1553 1.80957 78.2041 1.8291C78.2627 1.84863 78.3115 1.8584 78.3506 1.8584C78.79 1.81934 79.166 1.77539 79.4785 1.72656C79.8008 1.67773 80.0938 1.62891 80.3574 1.58008C80.6211 1.52148 80.875 1.46289 81.1191 1.4043C81.3633 1.3457 81.6318 1.29199 81.9248 1.24316H82.2764C82.4619 1.24316 82.6865 1.24805 82.9502 1.25781C83.2236 1.26758 83.4775 1.29688 83.7119 1.3457C83.9561 1.39453 84.1611 1.46777 84.3271 1.56543C84.5029 1.65332 84.5908 1.78516 84.5908 1.96094C84.5908 2.04883 84.5859 2.15625 84.5762 2.2832C84.5664 2.40039 84.5371 2.50293 84.4883 2.59082C84.4395 2.66895 84.293 2.73242 84.0488 2.78125C83.8145 2.83008 83.5557 2.86914 83.2725 2.89844C82.9893 2.92773 82.7109 2.94727 82.4375 2.95703C82.1641 2.9668 81.9688 2.97168 81.8516 2.97168C81.8027 2.99121 81.7539 3.00586 81.7051 3.01562C81.6562 3.02539 81.6074 3.03516 81.5586 3.04492C81.5195 3.04492 81.4805 3.04492 81.4414 3.04492L81.1924 3.11816C80.8408 3.15723 80.5723 3.19141 80.3867 3.2207C80.2012 3.25 80.0596 3.29395 79.9619 3.35254C79.8643 3.41113 79.8008 3.48926 79.7715 3.58691C79.752 3.6748 79.7275 3.80664 79.6982 3.98242C79.6787 4.14844 79.6641 4.31934 79.6543 4.49512C79.6543 4.66113 79.6348 4.85156 79.5957 5.06641L79.3906 5.53516C79.3906 5.66211 79.415 5.79883 79.4639 5.94531C79.5127 6.0918 79.5664 6.24316 79.625 6.39941C79.6934 6.5459 79.752 6.69727 79.8008 6.85352C79.8496 7.00977 79.874 7.16113 79.874 7.30762L79.7715 8.43555L79.9766 9.37305C79.9766 9.59766 79.9521 9.79785 79.9033 9.97363C79.8643 10.1396 79.8203 10.3203 79.7715 10.5156C79.7227 10.7988 79.6934 11.1113 79.6836 11.4531C79.6738 11.7949 79.6689 12.1025 79.6689 12.376L79.6396 12.8301C79.6396 13.0742 79.6836 13.2354 79.7715 13.3135V16.2725C79.7227 16.3604 79.6934 16.4287 79.6836 16.4775C79.6738 16.5166 79.6689 16.5605 79.6689 16.6094C79.6689 16.7559 79.7031 16.8926 79.7715 17.0195C79.8398 17.1367 79.874 17.249 79.874 17.3564C79.874 17.5615 79.8496 17.7861 79.8008 18.0303C79.7617 18.2646 79.7178 18.4648 79.6689 18.6309C79.6689 18.6504 79.6641 18.6797 79.6543 18.7188C79.6445 18.7578 79.6348 18.8018 79.625 18.8506C79.6152 18.8994 79.6055 18.9531 79.5957 19.0117C79.625 19.168 79.7178 19.3242 79.874 19.4805C80.0303 19.6367 80.2109 19.7783 80.416 19.9053C80.6211 20.0322 80.8311 20.1348 81.0459 20.2129C81.2607 20.291 81.4414 20.3301 81.5879 20.3301L82.2324 20.1982C82.2715 20.1982 82.3203 20.2227 82.3789 20.2715C82.4473 20.3105 82.5596 20.3301 82.7158 20.3301C82.8428 20.3301 82.9551 20.2959 83.0527 20.2275C83.1602 20.1592 83.292 20.125 83.4482 20.125L83.9023 20.3301L84.8398 20.4033L85.25 20.5059H85.499C85.7725 20.4668 86.041 20.4326 86.3047 20.4033C86.5781 20.3643 86.8418 20.3203 87.0957 20.2715C87.3594 20.2129 87.6133 20.1396 87.8574 20.0518C88.1016 19.9541 88.3262 19.8174 88.5312 19.6416L88.5752 19.5977C88.6143 19.5586 88.6338 19.5146 88.6338 19.4658C88.6826 19.3096 88.7461 19.1826 88.8242 19.085C88.9023 18.9775 88.9854 18.8848 89.0732 18.8066C89.1709 18.7188 89.2686 18.6406 89.3662 18.5723C89.4736 18.4941 89.5762 18.4014 89.6738 18.2939C89.8105 18.1865 89.9326 18.0352 90.04 17.8398C90.1475 17.6348 90.2695 17.4492 90.4062 17.2832C90.5039 17.1855 90.6211 17.083 90.7578 16.9756C90.8945 16.8584 91.0361 16.7559 91.1826 16.668C91.3291 16.5703 91.4707 16.4922 91.6074 16.4336C91.7539 16.375 91.8857 16.3457 92.0029 16.3457C92.0518 16.3457 92.1152 16.3506 92.1934 16.3604C92.2715 16.3701 92.3447 16.3848 92.4131 16.4043C92.4912 16.4238 92.5547 16.4531 92.6035 16.4922C92.6621 16.5215 92.6914 16.5605 92.6914 16.6094C92.6914 16.8242 92.6719 17.0049 92.6328 17.1514C92.5938 17.2881 92.5352 17.415 92.457 17.5322C92.3887 17.6494 92.3057 17.7617 92.208 17.8691C92.1201 17.9766 92.0273 18.0938 91.9297 18.2207C91.8906 18.2695 91.8613 18.3379 91.8418 18.4258C91.8223 18.5137 91.8125 18.5918 91.8125 18.6602C91.8125 18.7188 91.8174 18.7969 91.8271 18.8945C91.8467 18.9824 91.8564 19.0459 91.8564 19.085C91.8271 19.2119 91.7783 19.3291 91.71 19.4365C91.6514 19.5439 91.5781 19.6416 91.4902 19.7295C91.4121 19.8174 91.334 19.9004 91.2559 19.9785C91.1777 20.0566 91.1143 20.1299 91.0654 20.1982L90.9922 20.6523C90.8848 21.1504 90.665 21.5215 90.333 21.7656C90.0107 22.0098 89.6055 22.1318 89.1172 22.1318L87.96 21.8975L87.4912 22.1318H85.8945C85.6992 22.0146 85.5234 21.9463 85.3672 21.9268C85.2207 21.9072 85.0449 21.8975 84.8398 21.8975C84.6152 21.8975 84.4053 21.9365 84.21 22.0146C84.0146 22.0928 83.8291 22.1318 83.6533 22.1318H83.4482L81.1924 21.8242L80.9141 21.7217H79.5957C79.4883 21.6143 79.3955 21.5557 79.3174 21.5459C79.249 21.5264 79.1465 21.5166 79.0098 21.5166C78.9023 21.5166 78.8193 21.5215 78.7607 21.5312C78.7119 21.541 78.6436 21.5801 78.5557 21.6484H76.1973C76.0508 21.7656 75.8213 21.8633 75.5088 21.9414C75.1963 22.0098 74.8643 22.0635 74.5127 22.1025C74.1709 22.1416 73.8389 22.166 73.5166 22.1758C73.1943 22.1953 72.9453 22.2051 72.7695 22.2051C72.6426 22.2051 72.5303 22.1758 72.4326 22.1172C72.335 22.0586 72.252 21.9854 72.1836 21.8975C72.1152 21.7998 72.0615 21.6973 72.0225 21.5898C71.9834 21.4824 71.9639 21.375 71.9639 21.2676ZM93.7607 21.5752C93.7607 21.3799 93.8242 21.248 93.9512 21.1797C94.0781 21.1016 94.2344 21.0479 94.4199 21.0186C94.6055 20.9893 94.7959 20.9648 94.9912 20.9453C95.1865 20.9258 95.3525 20.8721 95.4893 20.7842C95.499 20.7744 95.5088 20.7598 95.5186 20.7402C95.5479 20.7109 95.5625 20.6914 95.5625 20.6816C95.5918 20.6426 95.6309 20.5791 95.6797 20.4912C95.7383 20.4033 95.792 20.3154 95.8408 20.2275C95.8994 20.1299 95.9531 20.042 96.002 19.9639C96.0508 19.876 96.0801 19.8174 96.0898 19.7881C96.1387 19.71 96.168 19.6318 96.1777 19.5537C96.1875 19.4658 96.1924 19.334 96.1924 19.1582C96.1924 19.0508 96.1826 18.9629 96.1631 18.8945C96.1436 18.8262 96.124 18.7627 96.1045 18.7041C96.085 18.6455 96.0654 18.5869 96.0459 18.5283C96.0264 18.46 96.0166 18.3818 96.0166 18.2939L96.2949 16.8291C96.2949 16.79 96.2852 16.7266 96.2656 16.6387C96.2559 16.541 96.2314 16.375 96.1924 16.1406V15.4375C96.1729 15.4082 96.1387 15.3301 96.0898 15.2031C96.041 15.0664 96.0166 14.959 96.0166 14.8809C96.0947 14.6367 96.1436 14.3975 96.1631 14.1631C96.1826 13.9189 96.1924 13.6699 96.1924 13.416V12.9326L96.0898 12.4785C96.0703 12.3613 96.0605 12.2441 96.0605 12.127C96.0605 12 96.0605 11.8779 96.0605 11.7607C96.0605 11.6533 96.0605 11.541 96.0605 11.4238C96.0605 11.3066 96.0703 11.1846 96.0898 11.0576C96.0703 10.9502 96.0068 10.8477 95.8994 10.75C95.792 10.6426 95.7139 10.5645 95.665 10.5156C95.4697 10.3789 95.2598 10.3057 95.0352 10.2959C94.8203 10.2861 94.6152 10.2715 94.4199 10.252C94.2344 10.2324 94.0781 10.1738 93.9512 10.0762C93.8242 9.96875 93.7607 9.75391 93.7607 9.43164C93.7607 9.23633 93.8438 9.10938 94.0098 9.05078C94.1758 8.98242 94.3369 8.93848 94.4932 8.91895H95.3281C95.7773 8.91895 96.2168 8.91406 96.6465 8.9043C97.0859 8.89453 97.5254 8.86523 97.9648 8.81641C98.0332 8.76758 98.1162 8.73828 98.2139 8.72852C98.3115 8.71875 98.4141 8.71387 98.5215 8.71387H99.4883C99.5078 8.71387 99.542 8.71875 99.5908 8.72852C99.6494 8.73828 99.708 8.75293 99.7666 8.77246C99.8252 8.78223 99.8789 8.79199 99.9277 8.80176C99.9766 8.81152 100.006 8.81641 100.016 8.81641C100.152 8.81641 100.294 8.83105 100.44 8.86035C100.587 8.87988 100.66 8.92871 100.66 9.00684C100.67 9.05566 100.68 9.10449 100.689 9.15332C100.699 9.19238 100.704 9.23633 100.704 9.28516C100.704 9.34375 100.699 9.40723 100.689 9.47559C100.68 9.53418 100.67 9.58789 100.66 9.63672C100.641 9.68555 100.592 9.73438 100.514 9.7832C100.445 9.82227 100.367 9.86133 100.279 9.90039C100.191 9.93945 100.104 9.97363 100.016 10.0029C99.9277 10.0225 99.8691 10.042 99.8398 10.0615L99.3125 10.5156C99.2344 10.5645 99.1367 10.5986 99.0195 10.6182C98.9023 10.6377 98.8193 10.6963 98.7705 10.7939C98.7607 10.8135 98.7314 10.8672 98.6826 10.9551C98.6436 11.043 98.6143 11.1113 98.5947 11.1602C98.585 11.1797 98.5703 11.2285 98.5508 11.3066C98.541 11.3457 98.5312 11.3799 98.5215 11.4092V12.7568C98.5215 12.7764 98.5312 12.8301 98.5508 12.918C98.5703 12.9961 98.585 13.0938 98.5947 13.2109C98.5947 13.2305 98.585 13.2744 98.5654 13.3428C98.5459 13.4111 98.5215 13.4844 98.4922 13.5625C98.4727 13.6406 98.4531 13.7139 98.4336 13.7822C98.4238 13.8506 98.4189 13.8945 98.4189 13.9141V15.1592L98.3164 16.8291L98.5947 18.1182V18.5576C98.5947 18.5771 98.5801 18.6406 98.5508 18.748C98.5312 18.8555 98.5215 18.9336 98.5215 18.9824C98.5215 19.0117 98.5361 19.0654 98.5654 19.1436C98.6045 19.2119 98.6436 19.2852 98.6826 19.3633C98.7314 19.4414 98.7754 19.5146 98.8145 19.583C98.8535 19.6514 98.873 19.6953 98.873 19.7148C98.9023 19.8027 98.9219 19.9102 98.9316 20.0371C98.9512 20.1543 98.9756 20.2715 99.0049 20.3887C99.0439 20.4961 99.0977 20.5889 99.166 20.667C99.2441 20.7451 99.3516 20.7842 99.4883 20.7842C99.5957 20.7842 99.6885 20.7695 99.7666 20.7402C99.8447 20.7012 99.9277 20.6816 100.016 20.6816C100.084 20.6816 100.172 20.6914 100.279 20.7109C100.396 20.7305 100.509 20.7646 100.616 20.8135C100.724 20.8525 100.816 20.9111 100.895 20.9893C100.973 21.0576 101.012 21.1406 101.012 21.2383C101.012 21.3945 100.973 21.5264 100.895 21.6338C100.826 21.7314 100.733 21.8145 100.616 21.8828C100.509 21.9414 100.387 21.9805 100.25 22C100.113 22.0293 99.9863 22.0439 99.8691 22.0439L98.2725 21.9561H97.8623C97.8428 21.9561 97.7842 21.9707 97.6865 22C97.5889 22.0293 97.5303 22.0439 97.5107 22.0439H96.0166L95.3867 22.1318H94.9326C94.8252 22.1318 94.7031 22.127 94.5664 22.1172C94.4395 22.1172 94.3125 22.0977 94.1855 22.0586C94.0684 22.0293 93.9658 21.9756 93.8779 21.8975C93.7998 21.8193 93.7607 21.7119 93.7607 21.5752ZM104.381 21.9707C104.205 21.9707 104.054 21.9658 103.927 21.9561C103.8 21.9463 103.639 21.917 103.443 21.8682C103.336 21.8486 103.272 21.8242 103.253 21.7949C103.243 21.7656 103.238 21.707 103.238 21.6191C103.238 21.3652 103.336 21.1846 103.531 21.0771C103.727 20.9697 103.937 20.9062 104.161 20.8867H104.864C104.884 20.8867 104.938 20.8428 105.025 20.7549C105.113 20.6572 105.177 20.584 105.216 20.5352C105.245 20.5156 105.279 20.4717 105.318 20.4033C105.367 20.335 105.392 20.291 105.392 20.2715C105.401 20.2324 105.411 20.1641 105.421 20.0664C105.431 19.959 105.44 19.8516 105.45 19.7441C105.46 19.627 105.47 19.5195 105.479 19.4219C105.489 19.3242 105.494 19.2559 105.494 19.2168L105.392 18.0742V17.8691C105.392 17.8203 105.396 17.7715 105.406 17.7227C105.416 17.6738 105.445 17.6299 105.494 17.5908V16.9609L105.392 15.1299V14.2949C105.421 14.2559 105.455 14.1729 105.494 14.0459C105.543 13.9189 105.567 13.8018 105.567 13.6943C105.567 13.3525 105.523 13.0449 105.436 12.7715C105.348 12.4883 105.25 12.1953 105.143 11.8926C105.143 11.873 105.128 11.8242 105.099 11.7461C105.079 11.668 105.06 11.624 105.04 11.6143C105.001 11.5264 104.967 11.4629 104.938 11.4238C104.918 11.375 104.869 11.3164 104.791 11.248C104.762 11.2285 104.708 11.1943 104.63 11.1455C104.562 11.0869 104.483 11.0234 104.396 10.9551C104.317 10.8867 104.234 10.8232 104.146 10.7646C104.068 10.6963 104.01 10.6475 103.971 10.6182C103.854 10.5303 103.717 10.457 103.561 10.3984C103.414 10.3301 103.268 10.2568 103.121 10.1787C102.984 10.1006 102.862 10.0078 102.755 9.90039C102.647 9.79297 102.584 9.64648 102.564 9.46094C102.564 9.44141 102.569 9.40234 102.579 9.34375C102.599 9.27539 102.618 9.22656 102.638 9.19727C102.647 9.17773 102.672 9.14844 102.711 9.10938C102.76 9.07031 102.794 9.04102 102.813 9.02148H103.165C103.272 9.01172 103.365 8.98242 103.443 8.93359C103.531 8.875 103.634 8.8457 103.751 8.8457C103.956 8.8457 104.156 8.87012 104.352 8.91895C104.557 8.96777 104.762 9.00195 104.967 9.02148C104.986 9.03125 105.04 9.04102 105.128 9.05078C105.216 9.06055 105.309 9.07031 105.406 9.08008C105.504 9.08008 105.597 9.08496 105.685 9.09473C105.772 9.09473 105.826 9.09473 105.846 9.09473C105.865 9.11426 105.934 9.1582 106.051 9.22656C106.168 9.28516 106.246 9.33398 106.285 9.37305L106.739 9.91504C106.944 10.0713 107.14 10.2324 107.325 10.3984C107.521 10.5645 107.716 10.7305 107.911 10.8965C107.911 10.916 107.936 10.9355 107.984 10.9551C108.033 10.9648 108.067 10.9697 108.087 10.9697C108.097 10.9893 108.111 11.0088 108.131 11.0283C108.15 11.0479 108.16 11.0625 108.16 11.0723L108.365 11.4385L108.966 12.0684C108.985 12.0879 109.015 12.1465 109.054 12.2441C109.103 12.3418 109.132 12.4004 109.142 12.4199C109.249 12.5957 109.366 12.7373 109.493 12.8447C109.62 12.9521 109.747 13.0498 109.874 13.1377C110.011 13.2256 110.143 13.3184 110.27 13.416C110.406 13.5039 110.538 13.6211 110.665 13.7676C110.89 14.0117 111.075 14.251 111.222 14.4854C111.368 14.7197 111.539 14.9785 111.734 15.2617C111.734 15.2812 111.744 15.3008 111.764 15.3203C111.793 15.3301 111.817 15.3447 111.837 15.3643L112.086 15.54C112.115 15.5596 112.164 15.6084 112.232 15.6865C112.311 15.7646 112.394 15.8477 112.481 15.9355C112.569 16.0234 112.652 16.1064 112.73 16.1846C112.809 16.2627 112.862 16.3066 112.892 16.3164C112.911 16.3457 112.955 16.3848 113.023 16.4336C113.092 16.4824 113.136 16.5117 113.155 16.5215C113.214 16.5703 113.277 16.6436 113.346 16.7412C113.414 16.8291 113.482 16.917 113.551 17.0049C113.619 17.0928 113.688 17.1709 113.756 17.2393C113.824 17.3076 113.893 17.3418 113.961 17.3418C114.068 17.3418 114.161 17.3125 114.239 17.2539C114.327 17.1855 114.41 17.1221 114.488 17.0635C114.596 16.9854 114.654 16.9316 114.664 16.9023C114.684 16.8633 114.693 16.7949 114.693 16.6973L114.488 15.3789L114.591 14.1191C114.591 14.1094 114.581 14.085 114.562 14.0459C114.542 14.0068 114.518 13.9678 114.488 13.9287C114.469 13.8896 114.449 13.8555 114.43 13.8262C114.42 13.7871 114.415 13.7676 114.415 13.7676V13.416C114.415 13.3867 114.4 13.3379 114.371 13.2695C114.352 13.2012 114.332 13.1572 114.312 13.1377V11.79C114.312 11.7607 114.308 11.707 114.298 11.6289C114.298 11.5508 114.293 11.4678 114.283 11.3799C114.273 11.292 114.264 11.209 114.254 11.1309C114.254 11.0527 114.249 10.999 114.239 10.9697C114.22 10.8818 114.171 10.8037 114.093 10.7354C114.024 10.6572 113.937 10.6182 113.829 10.6182C113.722 10.6182 113.609 10.6377 113.492 10.6768C113.375 10.7061 113.253 10.7207 113.126 10.7207C113.058 10.7207 112.94 10.7158 112.774 10.7061C112.618 10.6963 112.457 10.6768 112.291 10.6475C112.125 10.6084 111.979 10.5547 111.852 10.4863C111.725 10.418 111.661 10.3203 111.661 10.1934V9.73926C111.661 9.62207 111.661 9.50977 111.661 9.40234C111.671 9.28516 111.695 9.1875 111.734 9.10938C111.773 9.03125 111.832 8.96777 111.91 8.91895C111.998 8.87012 112.115 8.8457 112.262 8.8457C112.525 8.8457 112.789 8.875 113.053 8.93359C113.326 8.99219 113.585 9.02148 113.829 9.02148C113.966 9.02148 114.122 9.01172 114.298 8.99219C114.474 8.96289 114.63 8.91406 114.767 8.8457H116.539C116.617 8.89453 116.705 8.92383 116.803 8.93359C116.9 8.94336 117.003 8.94824 117.11 8.94824H117.462C117.589 9.0166 117.662 9.11914 117.682 9.25586C117.701 9.38281 117.711 9.51465 117.711 9.65137V9.73926C117.711 10.0029 117.594 10.2129 117.359 10.3691L116.539 10.8965C116.539 10.9062 116.52 10.916 116.48 10.9258C116.441 10.9355 116.397 10.9453 116.349 10.9551C116.3 10.9551 116.251 10.96 116.202 10.9697C116.153 10.9697 116.124 10.9697 116.114 10.9697C116.075 10.9893 116.031 11.043 115.982 11.1309C115.934 11.2188 115.885 11.3213 115.836 11.4385C115.787 11.5459 115.743 11.6484 115.704 11.7461C115.675 11.834 115.66 11.8877 115.66 11.9072L115.763 12.376C115.763 12.3857 115.763 12.4102 115.763 12.4492C115.763 12.4785 115.753 12.4932 115.733 12.4932C115.733 12.5127 115.719 12.5469 115.689 12.5957C115.67 12.6445 115.66 12.6787 115.66 12.6982C115.631 12.8057 115.616 12.9277 115.616 13.0645C115.616 13.2012 115.611 13.3428 115.602 13.4893C115.602 13.626 115.592 13.7578 115.572 13.8848C115.562 14.0117 115.533 14.1143 115.484 14.1924L115.411 16.4775C115.421 16.7412 115.47 16.9902 115.558 17.2246C115.655 17.4492 115.714 17.6885 115.733 17.9424L115.836 19.5684C115.855 19.6562 115.885 19.749 115.924 19.8467C115.973 20.0322 116.036 20.2324 116.114 20.4473V21.7949C116.114 21.9023 116.061 21.9854 115.953 22.0439C115.846 22.1123 115.748 22.1465 115.66 22.1465C115.553 22.1465 115.44 22.1172 115.323 22.0586C115.206 22 115.089 21.9316 114.972 21.8535C114.854 21.7656 114.747 21.6777 114.649 21.5898C114.552 21.4922 114.474 21.4092 114.415 21.3408C114.386 21.3115 114.342 21.2676 114.283 21.209C114.234 21.1406 114.181 21.0723 114.122 21.0039C114.063 20.9355 114.01 20.877 113.961 20.8281C113.912 20.7695 113.878 20.7305 113.858 20.7109C113.858 20.6914 113.834 20.6328 113.785 20.5352C113.746 20.4277 113.722 20.3691 113.712 20.3594C113.692 20.3496 113.648 20.3154 113.58 20.2568C113.521 20.1885 113.453 20.1201 113.375 20.0518C113.307 19.9736 113.238 19.9053 113.17 19.8467C113.111 19.7783 113.077 19.7344 113.067 19.7148C112.765 19.4121 112.496 19.0947 112.262 18.7627C112.154 18.5967 112.037 18.4697 111.91 18.3818C111.783 18.2939 111.666 18.1816 111.559 18.0449C111.559 18.0254 111.534 17.9814 111.485 17.9131C111.437 17.8447 111.402 17.7959 111.383 17.7666C111.373 17.7568 111.354 17.7324 111.324 17.6934C111.305 17.6445 111.28 17.5957 111.251 17.5469C111.222 17.498 111.192 17.4541 111.163 17.415C111.144 17.3662 111.129 17.3418 111.119 17.3418C110.982 17.1562 110.807 17.0098 110.592 16.9023C110.377 16.7852 110.191 16.6582 110.035 16.5215L109.786 16.2432C109.767 16.2334 109.728 16.1943 109.669 16.126C109.62 16.0479 109.596 15.9941 109.596 15.9648L109.068 15.54L107.911 14.2949C107.872 14.2559 107.809 14.1973 107.721 14.1191C107.643 14.0312 107.56 13.9434 107.472 13.8555C107.384 13.7676 107.301 13.6895 107.223 13.6211C107.154 13.5527 107.11 13.5088 107.091 13.4893C107.042 13.4502 106.993 13.4258 106.944 13.416C106.905 13.3965 106.847 13.3867 106.769 13.3867C106.651 13.3867 106.568 13.4258 106.52 13.5039C106.48 13.5723 106.461 13.6602 106.461 13.7676C106.461 13.7871 106.461 13.8359 106.461 13.9141C106.461 13.9824 106.471 14.0166 106.49 14.0166L106.563 14.7197V15.9648L106.637 17.3418C106.646 17.3418 106.656 17.3662 106.666 17.415C106.676 17.4639 106.686 17.5176 106.695 17.5762C106.705 17.6348 106.715 17.6934 106.725 17.752C106.734 17.8008 106.739 17.8301 106.739 17.8398V18.7627C106.739 18.7725 106.749 18.8311 106.769 18.9385C106.798 19.0361 106.822 19.0947 106.842 19.1143C106.861 19.3389 106.896 19.5684 106.944 19.8027C106.993 20.0273 107.018 20.252 107.018 20.4766C107.018 20.5254 107.018 20.584 107.018 20.6523C107.018 20.7109 107.008 20.7646 106.988 20.8135L107.091 20.8867C107.149 20.8965 107.247 20.9111 107.384 20.9307C107.521 20.9404 107.662 20.9551 107.809 20.9746C107.965 20.9941 108.106 21.0186 108.233 21.0479C108.37 21.0674 108.463 21.082 108.512 21.0918C108.688 21.1016 108.795 21.1357 108.834 21.1943C108.873 21.2529 108.893 21.3604 108.893 21.5166C108.893 21.7803 108.795 21.9512 108.6 22.0293C108.404 22.1074 108.199 22.1465 107.984 22.1465C107.877 22.1465 107.784 22.1416 107.706 22.1318C107.638 22.1221 107.574 22.1074 107.516 22.0879C107.457 22.0684 107.394 22.0439 107.325 22.0146C107.267 21.9951 107.188 21.9756 107.091 21.9561C107.042 21.9561 106.959 21.9414 106.842 21.9121C106.734 21.8828 106.666 21.8682 106.637 21.8682H105.904L104.381 21.9707ZM129.62 21.9268C129.542 21.9268 129.469 21.9316 129.4 21.9414C129.342 21.9512 129.273 21.9609 129.195 21.9707C129.088 21.9902 128.985 22.0049 128.888 22.0146C128.79 22.0244 128.688 22.0293 128.58 22.0293L128.053 22C127.916 21.9609 127.813 21.8975 127.745 21.8096C127.677 21.7119 127.628 21.6045 127.599 21.4873C127.569 21.3701 127.555 21.2529 127.555 21.1357C127.555 21.0088 127.55 20.8916 127.54 20.7842C127.53 20.7354 127.516 20.6475 127.496 20.5205C127.477 20.3936 127.457 20.2617 127.438 20.125C127.428 19.9883 127.413 19.8564 127.394 19.7295C127.384 19.6025 127.374 19.5146 127.364 19.4658C127.276 19.3486 127.213 19.2363 127.174 19.1289C127.135 19.0117 127.081 18.8945 127.013 18.7773L126.734 18.499C126.734 18.4893 126.725 18.4404 126.705 18.3525C126.686 18.2549 126.671 18.1963 126.661 18.1768C126.622 18.0693 126.539 17.9131 126.412 17.708C126.285 17.4932 126.139 17.2832 125.973 17.0781C125.816 16.873 125.65 16.6973 125.475 16.5508C125.299 16.3945 125.143 16.3164 125.006 16.3164C124.977 16.3359 124.938 16.3604 124.889 16.3896C124.84 16.4092 124.786 16.4336 124.728 16.4629C124.679 16.4922 124.63 16.5215 124.581 16.5508C124.532 16.5801 124.498 16.5996 124.479 16.6094C124.439 16.6191 124.4 16.6582 124.361 16.7266C124.322 16.7852 124.303 16.8291 124.303 16.8584C124.283 17.0342 124.269 17.2148 124.259 17.4004C124.249 17.5859 124.244 17.7764 124.244 17.9717L124.303 19.3193C124.303 19.3291 124.288 19.3682 124.259 19.4365C124.239 19.5049 124.229 19.5732 124.229 19.6416C124.229 19.6514 124.239 19.6855 124.259 19.7441C124.269 19.7734 124.283 19.7979 124.303 19.8174V20.1689C124.322 20.2764 124.356 20.3447 124.405 20.374C124.464 20.3936 124.513 20.4473 124.552 20.5352L124.728 20.8574C124.737 20.877 124.767 20.9062 124.815 20.9453C124.864 20.9844 124.913 21.0283 124.962 21.0771C125.021 21.126 125.069 21.1748 125.108 21.2236C125.157 21.2627 125.182 21.2871 125.182 21.2969V21.4727C125.182 21.5508 125.157 21.6143 125.108 21.6631C125.069 21.7021 125.016 21.7363 124.947 21.7656C124.889 21.7852 124.82 21.8096 124.742 21.8389C124.674 21.8584 124.61 21.8877 124.552 21.9268H123.336C123.287 21.9756 123.233 22.0049 123.175 22.0146C123.126 22.0244 123.072 22.0293 123.014 22.0293C122.848 22.0293 122.696 22.0098 122.56 21.9707C122.433 21.9219 122.276 21.8975 122.091 21.8975L120.772 22.0293C120.743 22.0293 120.704 22.0293 120.655 22.0293C120.616 22.0293 120.577 22.0244 120.538 22.0146C120.489 22.0146 120.44 22.0098 120.392 22C120.382 22 120.353 21.9902 120.304 21.9707C120.265 21.9512 120.216 21.9268 120.157 21.8975C120.108 21.8682 120.055 21.8389 119.996 21.8096C119.938 21.7803 119.894 21.7607 119.864 21.751C119.815 21.7217 119.786 21.6973 119.776 21.6777C119.767 21.6484 119.762 21.6143 119.762 21.5752C119.762 21.4678 119.811 21.3848 119.908 21.3262C120.006 21.2676 120.118 21.2188 120.245 21.1797C120.372 21.1406 120.499 21.1064 120.626 21.0771C120.753 21.0479 120.846 21.0088 120.904 20.96C121.168 20.7451 121.388 20.4863 121.563 20.1836C121.739 19.8809 121.842 19.5586 121.871 19.2168V18.7041C121.871 18.626 121.871 18.5479 121.871 18.4697C121.881 18.3916 121.905 18.3184 121.944 18.25C121.925 18.084 121.915 17.918 121.915 17.752C121.915 17.5859 121.915 17.4199 121.915 17.2539C121.915 17.0879 121.915 16.9219 121.915 16.7559C121.915 16.5801 121.925 16.4092 121.944 16.2432C121.964 16.2236 121.993 16.1699 122.032 16.082C122.071 15.9844 122.101 15.9111 122.12 15.8623L122.018 15.335L122.12 14.3682V13.8115C122.12 13.7725 122.115 13.7041 122.105 13.6064C122.105 13.5088 122.101 13.4062 122.091 13.2988C122.081 13.1816 122.071 13.0742 122.062 12.9766C122.062 12.8789 122.057 12.8057 122.047 12.7568C122.027 12.7373 121.998 12.6982 121.959 12.6396C121.92 12.5713 121.891 12.5225 121.871 12.4932L121.769 12.3174V11.6289C121.72 11.5605 121.676 11.502 121.637 11.4531C121.598 11.4043 121.559 11.3604 121.52 11.3213C121.48 11.2725 121.451 11.2334 121.432 11.2041C121.354 11.1162 121.236 11.0283 121.08 10.9404C120.934 10.8525 120.782 10.7646 120.626 10.6768C120.47 10.5791 120.333 10.4766 120.216 10.3691C120.099 10.2617 120.04 10.1445 120.04 10.0176C120.04 9.97852 120.064 9.94434 120.113 9.91504C120.162 9.87598 120.216 9.8418 120.274 9.8125C120.343 9.7832 120.406 9.76367 120.465 9.75391C120.533 9.73438 120.587 9.71973 120.626 9.70996C120.782 9.69043 120.929 9.67578 121.065 9.66602C121.202 9.65625 121.354 9.65137 121.52 9.65137H121.9C121.949 9.6709 121.998 9.68066 122.047 9.68066C122.096 9.68066 122.154 9.68066 122.223 9.68066C122.301 9.68066 122.369 9.68066 122.428 9.68066C122.496 9.6709 122.569 9.65625 122.647 9.63672C123.087 9.72461 123.531 9.76367 123.98 9.75391C124.439 9.74414 124.903 9.76367 125.372 9.8125C125.45 9.86133 125.504 9.93945 125.533 10.0469C125.562 10.1445 125.592 10.2324 125.621 10.3105C125.592 10.3301 125.553 10.3643 125.504 10.4131C125.455 10.4619 125.401 10.5156 125.343 10.5742C125.284 10.6328 125.23 10.6865 125.182 10.7354C125.133 10.7842 125.099 10.8232 125.079 10.8525L124.83 11.3506C124.811 11.3701 124.776 11.4043 124.728 11.4531C124.679 11.4922 124.654 11.5215 124.654 11.541C124.645 11.5605 124.635 11.5947 124.625 11.6436C124.615 11.6924 124.605 11.7461 124.596 11.8047C124.596 11.8633 124.591 11.9219 124.581 11.9805C124.571 12.0293 124.562 12.0586 124.552 12.0684L124.229 12.4199C124.22 12.4688 124.215 12.5127 124.215 12.5518C124.205 12.5908 124.2 12.6348 124.2 12.6836C124.2 12.7324 124.2 12.7812 124.2 12.8301C124.2 12.8887 124.205 12.957 124.215 13.0352C124.225 13.1035 124.254 13.1621 124.303 13.2109L124.332 13.7822L124.303 14.3535C124.254 14.3926 124.225 14.4365 124.215 14.4854C124.205 14.5342 124.2 14.583 124.2 14.6318C124.2 14.7588 124.234 14.8613 124.303 14.9395C124.371 15.0078 124.43 15.0957 124.479 15.2031C124.498 15.2227 124.518 15.2666 124.537 15.335C124.566 15.4033 124.615 15.4473 124.684 15.4668C124.791 15.4668 124.869 15.4277 124.918 15.3496C124.977 15.2715 125.006 15.1641 125.006 15.0273C125.143 14.9492 125.245 14.8613 125.313 14.7637C125.382 14.6562 125.436 14.5488 125.475 14.4414C125.523 14.3242 125.567 14.207 125.606 14.0898C125.646 13.9629 125.699 13.8359 125.768 13.709C125.787 13.6797 125.812 13.6406 125.841 13.5918C125.88 13.543 125.914 13.4941 125.943 13.4453C125.982 13.3867 126.017 13.3379 126.046 13.2988C126.085 13.25 126.109 13.2207 126.119 13.2109L126.661 12.5664C126.671 12.5566 126.686 12.4932 126.705 12.376C126.725 12.249 126.734 12.1807 126.734 12.1709C126.773 12.0635 126.822 11.9609 126.881 11.8633C126.949 11.7559 126.993 11.6484 127.013 11.541V10.9258C127.052 10.877 127.13 10.8232 127.247 10.7646C127.364 10.7061 127.428 10.6523 127.438 10.6035V10.3105C127.467 10.2129 127.525 10.1299 127.613 10.0615C127.701 9.9834 127.799 9.91992 127.906 9.87109C128.023 9.8125 128.141 9.77344 128.258 9.75391C128.385 9.72461 128.492 9.70996 128.58 9.70996C128.688 9.70996 128.785 9.71484 128.873 9.72461C128.961 9.73438 129.059 9.74414 129.166 9.75391C129.234 9.77344 129.303 9.78809 129.371 9.79785C129.439 9.80762 129.508 9.8125 129.576 9.8125H129.796C129.825 9.80273 129.874 9.77832 129.942 9.73926C130.011 9.7002 130.079 9.66602 130.147 9.63672C130.226 9.59766 130.294 9.56348 130.353 9.53418C130.411 9.49512 130.455 9.4707 130.484 9.46094H131.979C132.037 9.46094 132.12 9.4707 132.228 9.49023C132.335 9.5 132.442 9.51953 132.55 9.54883C132.657 9.57812 132.75 9.61719 132.828 9.66602C132.906 9.71484 132.945 9.77344 132.945 9.8418C132.945 9.90039 132.926 9.97363 132.887 10.0615C132.848 10.1494 132.799 10.2373 132.74 10.3252C132.691 10.4033 132.633 10.4766 132.564 10.5449C132.506 10.6035 132.452 10.6475 132.403 10.6768L131.979 10.7793C131.969 10.7793 131.935 10.7891 131.876 10.8086C131.827 10.8184 131.769 10.833 131.7 10.8525C131.642 10.8623 131.578 10.877 131.51 10.8965C131.451 10.9062 131.407 10.916 131.378 10.9258C131.271 10.9648 131.163 11.0234 131.056 11.1016C130.948 11.1699 130.851 11.2041 130.763 11.2041L130.353 11.1016C130.323 11.1016 130.24 11.1211 130.104 11.1602C129.967 11.1895 129.815 11.2285 129.649 11.2773C129.493 11.3262 129.342 11.375 129.195 11.4238C129.059 11.4727 128.971 11.5117 128.932 11.541C128.912 11.5508 128.878 11.5801 128.829 11.6289C128.79 11.668 128.746 11.7119 128.697 11.7607C128.648 11.8096 128.6 11.8584 128.551 11.9072C128.512 11.9561 128.487 11.9854 128.478 11.9951L128.229 12.1709C128.209 12.1709 128.15 12.1807 128.053 12.2002C127.955 12.21 127.896 12.2246 127.877 12.2441C127.789 12.2832 127.706 12.3662 127.628 12.4932C127.56 12.6104 127.496 12.7471 127.438 12.9033C127.389 13.0498 127.345 13.2012 127.306 13.3574C127.276 13.5039 127.262 13.6211 127.262 13.709C127.262 13.8457 127.267 13.9873 127.276 14.1338C127.296 14.2803 127.35 14.4121 127.438 14.5293L128.126 15.291C128.126 15.3203 128.131 15.3691 128.141 15.4375C128.15 15.5059 128.16 15.5791 128.17 15.6572C128.18 15.7256 128.189 15.7939 128.199 15.8623C128.209 15.9209 128.219 15.9648 128.229 15.9941L128.404 16.2432V16.6826C128.414 16.79 128.458 16.8877 128.536 16.9756C128.624 17.0537 128.717 17.127 128.814 17.1953C128.912 17.2539 129.01 17.3125 129.107 17.3711C129.205 17.4297 129.283 17.4883 129.342 17.5469C129.361 17.5664 129.396 17.6299 129.444 17.7373C129.493 17.835 129.518 17.8936 129.518 17.9131C129.537 17.9326 129.571 17.9766 129.62 18.0449C129.669 18.1133 129.693 18.1572 129.693 18.1768C129.703 18.1865 129.728 18.2256 129.767 18.2939C129.806 18.3623 129.845 18.4355 129.884 18.5137C129.923 18.5918 129.957 18.665 129.986 18.7334C130.025 18.8018 130.05 18.8408 130.06 18.8506C130.079 18.8994 130.128 18.9531 130.206 19.0117C130.284 19.0605 130.367 19.1094 130.455 19.1582C130.504 19.1973 130.553 19.2363 130.602 19.2754C130.65 19.3047 130.694 19.3438 130.733 19.3926C130.763 19.4121 130.797 19.4609 130.836 19.5391C130.885 19.6074 130.919 19.6416 130.938 19.6416C130.958 19.6709 130.992 19.7148 131.041 19.7734C131.1 19.832 131.163 19.8955 131.231 19.9639C131.3 20.0225 131.363 20.0811 131.422 20.1396C131.48 20.1982 131.524 20.2373 131.554 20.2568C131.622 20.335 131.72 20.3984 131.847 20.4473C131.974 20.4863 132.105 20.5303 132.242 20.5791C132.379 20.6182 132.516 20.6621 132.652 20.7109C132.789 20.75 132.911 20.7988 133.019 20.8574C133.067 20.9062 133.092 20.9404 133.092 20.96C133.131 21.0186 133.194 21.0967 133.282 21.1943C133.38 21.292 133.473 21.3945 133.561 21.502C133.658 21.5996 133.741 21.6973 133.81 21.7949C133.878 21.8828 133.912 21.9512 133.912 22C133.912 22.1367 133.854 22.2295 133.736 22.2783C133.619 22.3271 133.507 22.3516 133.399 22.3516C133.263 22.3516 133.136 22.332 133.019 22.293C132.911 22.2637 132.794 22.249 132.667 22.249C132.54 22.249 132.403 22.2734 132.257 22.3223C132.188 22.3516 132.115 22.376 132.037 22.3955C131.969 22.415 131.856 22.4248 131.7 22.4248C131.69 22.4248 131.661 22.415 131.612 22.3955C131.563 22.3857 131.51 22.3711 131.451 22.3516C131.393 22.332 131.334 22.3125 131.275 22.293C131.227 22.2734 131.197 22.2588 131.188 22.249C131.178 22.249 131.144 22.2441 131.085 22.2344C131.026 22.2344 130.958 22.2295 130.88 22.2197C130.812 22.2197 130.748 22.2148 130.689 22.2051C130.631 22.1953 130.597 22.1855 130.587 22.1758C130.479 22.1465 130.392 22.1172 130.323 22.0879C130.265 22.0586 130.201 22.0293 130.133 22C130.074 21.9805 130.006 21.9658 129.928 21.9561C129.85 21.9365 129.747 21.9268 129.62 21.9268ZM135.421 21.3701C135.421 21.165 135.47 21.0039 135.567 20.8867C135.665 20.7598 135.782 20.6572 135.919 20.5791C136.065 20.501 136.222 20.4277 136.388 20.3594C136.554 20.2812 136.705 20.1885 136.842 20.0811C136.988 19.9736 137.11 19.832 137.208 19.6562C137.306 19.4805 137.354 19.2461 137.354 18.9531C137.354 18.875 137.354 18.8018 137.354 18.7334C137.354 18.6553 137.345 18.5771 137.325 18.499C137.296 18.3232 137.281 18.1377 137.281 17.9424C137.281 17.7861 137.296 17.625 137.325 17.459C137.345 17.3809 137.354 17.3125 137.354 17.2539C137.354 17.1855 137.354 17.1123 137.354 17.0342C137.354 16.9268 137.35 16.8291 137.34 16.7412C137.33 16.6533 137.315 16.5557 137.296 16.4482C137.286 16.3408 137.276 16.2285 137.267 16.1113C137.257 15.9941 137.252 15.877 137.252 15.7598C137.252 15.6523 137.257 15.5498 137.267 15.4521C137.276 15.3447 137.286 15.2373 137.296 15.1299C137.315 15.0225 137.335 14.9199 137.354 14.8223C137.374 14.7148 137.384 14.6074 137.384 14.5C137.384 14.3242 137.364 14.1484 137.325 13.9727C137.296 13.7871 137.262 13.6064 137.223 13.4307C137.184 13.2842 137.149 13.1328 137.12 12.9766C137.101 12.8105 137.091 12.6494 137.091 12.4932C137.091 12.4346 137.096 12.3809 137.105 12.332C137.115 12.2734 137.13 12.2197 137.149 12.1709C137.179 12.0732 137.193 11.9707 137.193 11.8633C137.193 11.8535 137.188 11.8486 137.179 11.8486C137.179 11.8389 137.179 11.8242 137.179 11.8047V11.7607C137.169 11.7314 137.149 11.6924 137.12 11.6436C137.101 11.585 137.076 11.5312 137.047 11.4824C137.018 11.4238 136.988 11.3701 136.959 11.3213C136.939 11.2725 136.925 11.2432 136.915 11.2334C136.876 11.1943 136.808 11.126 136.71 11.0283C136.612 10.9209 136.51 10.8135 136.402 10.7061C136.295 10.5889 136.188 10.4814 136.08 10.3838C135.982 10.2861 135.914 10.2227 135.875 10.1934C135.865 10.1738 135.846 10.1445 135.816 10.1055C135.797 10.0664 135.787 10.0371 135.787 10.0176C135.787 9.82227 135.86 9.6416 136.007 9.47559C136.153 9.30957 136.305 9.20215 136.461 9.15332C136.529 9.12402 136.617 9.08984 136.725 9.05078C136.842 9.01172 136.954 8.97754 137.062 8.94824C137.179 8.90918 137.281 8.875 137.369 8.8457C137.457 8.81641 137.511 8.80176 137.53 8.80176C137.55 8.80176 137.599 8.79688 137.677 8.78711C137.755 8.77734 137.813 8.77246 137.853 8.77246C137.989 8.77246 138.116 8.78711 138.233 8.81641C138.36 8.8457 138.487 8.875 138.614 8.9043C138.692 8.91406 138.775 8.92871 138.863 8.94824C138.951 8.96777 139.039 8.97754 139.127 8.97754C139.215 8.97754 139.293 8.97266 139.361 8.96289C139.43 8.95312 139.503 8.93848 139.581 8.91895C139.649 8.90918 139.718 8.89941 139.786 8.88965C139.854 8.87988 139.928 8.875 140.006 8.875C140.191 8.875 140.362 8.9043 140.519 8.96289C140.675 9.02148 140.836 9.05078 141.002 9.05078C141.012 9.05078 141.046 9.05566 141.104 9.06543C141.163 9.06543 141.227 9.06543 141.295 9.06543C141.373 9.06543 141.446 9.07031 141.515 9.08008C141.593 9.08008 141.656 9.08008 141.705 9.08008C142.174 9.08008 142.638 9.05078 143.097 8.99219C143.565 8.93359 144.034 8.89453 144.503 8.875C144.552 8.83594 144.591 8.81641 144.62 8.81641C144.659 8.80664 144.713 8.80176 144.781 8.80176C145.035 8.90918 145.226 9.05078 145.353 9.22656C145.479 9.40234 145.572 9.60742 145.631 9.8418C145.631 9.86133 145.631 9.90039 145.631 9.95898C145.641 10.0176 145.65 10.0811 145.66 10.1494C145.67 10.2178 145.68 10.2812 145.689 10.3398C145.699 10.3984 145.709 10.4326 145.719 10.4424C145.719 10.4521 145.724 10.4717 145.733 10.501C145.743 10.5205 145.753 10.5742 145.763 10.6621C145.772 10.7402 145.782 10.8525 145.792 10.999C145.802 11.1455 145.812 11.3408 145.821 11.585C145.821 11.7119 145.753 11.8145 145.616 11.8926C145.489 11.9707 145.372 12.0098 145.265 12.0098C145.157 12.0098 145.069 12 145.001 11.9805C144.933 11.9609 144.869 11.9316 144.811 11.8926C144.752 11.8535 144.693 11.8096 144.635 11.7607C144.576 11.7021 144.503 11.6436 144.415 11.585C144.405 11.585 144.376 11.5752 144.327 11.5557C144.288 11.5264 144.259 11.502 144.239 11.4824C144.229 11.4824 144.186 11.4775 144.107 11.4678C144.029 11.4482 143.98 11.4287 143.961 11.4092C143.766 11.3311 143.609 11.2236 143.492 11.0869C143.385 10.9404 143.253 10.7842 143.097 10.6182C143.048 10.6182 142.97 10.6182 142.862 10.6182C142.765 10.6084 142.652 10.5986 142.525 10.5889C142.408 10.5791 142.296 10.5693 142.188 10.5596C142.081 10.5498 142.008 10.5352 141.969 10.5156C141.949 10.5156 141.891 10.4912 141.793 10.4424C141.695 10.3936 141.632 10.3691 141.603 10.3691C141.593 10.3496 141.534 10.3398 141.427 10.3398C141.329 10.3398 141.256 10.3398 141.207 10.3398C141.012 10.3398 140.846 10.374 140.709 10.4424C140.572 10.5107 140.455 10.6035 140.357 10.7207C140.26 10.8379 140.177 10.9746 140.108 11.1309C140.05 11.2773 140.001 11.4287 139.962 11.585C139.962 11.6045 139.947 11.6631 139.918 11.7607C139.898 11.8584 139.879 11.9268 139.859 11.9658C139.859 11.9854 139.864 12.0146 139.874 12.0537C139.894 12.083 139.923 12.1904 139.962 12.376C139.962 12.6787 139.918 12.9814 139.83 13.2842C139.752 13.5771 139.713 13.8799 139.713 14.1924C139.713 14.2803 139.742 14.3486 139.801 14.3975C139.859 14.4463 139.928 14.4805 140.006 14.5C140.094 14.5195 140.182 14.5342 140.27 14.5439C140.367 14.5439 140.45 14.5439 140.519 14.5439H140.855C140.904 14.5439 140.968 14.5391 141.046 14.5293C141.134 14.5195 141.217 14.5098 141.295 14.5C141.373 14.4902 141.441 14.4805 141.5 14.4707C141.568 14.4609 141.603 14.4512 141.603 14.4414C141.612 14.4414 141.642 14.4268 141.69 14.3975C141.739 14.3584 141.788 14.3193 141.837 14.2803C141.896 14.2314 141.954 14.1826 142.013 14.1338C142.071 14.085 142.115 14.0459 142.145 14.0166C142.174 13.9873 142.208 13.9531 142.247 13.9141C142.296 13.875 142.34 13.8359 142.379 13.7969C142.428 13.748 142.467 13.7041 142.496 13.665C142.535 13.626 142.56 13.6016 142.569 13.5918C142.657 13.4746 142.701 13.3477 142.701 13.2109C142.711 13.0742 142.721 12.9521 142.73 12.8447C142.75 12.7275 142.794 12.6348 142.862 12.5664C142.931 12.4883 143.072 12.4492 143.287 12.4492C143.57 12.4492 143.771 12.5371 143.888 12.7129C144.005 12.8887 144.063 13.1133 144.063 13.3867C144.063 13.5527 144.044 13.6846 144.005 13.7822C143.966 13.8799 143.922 13.9678 143.873 14.0459C143.834 14.124 143.795 14.207 143.756 14.2949C143.727 14.3828 143.712 14.4951 143.712 14.6318C143.712 14.7588 143.736 14.8662 143.785 14.9541C143.834 15.0322 143.868 15.125 143.888 15.2324L143.961 16.1992C143.971 16.209 143.98 16.2383 143.99 16.2871C144.01 16.3359 144.029 16.3945 144.049 16.4629C144.068 16.5215 144.088 16.585 144.107 16.6533C144.127 16.7119 144.137 16.7607 144.137 16.7998C144.127 16.8486 144.117 16.9072 144.107 16.9756C144.107 17.0439 144.103 17.1123 144.093 17.1807C144.083 17.2588 144.073 17.3369 144.063 17.415C144.054 17.4443 144.029 17.4834 143.99 17.5322C143.951 17.5713 143.902 17.6152 143.844 17.6641C143.795 17.7031 143.741 17.7422 143.683 17.7812C143.624 17.8203 143.575 17.8398 143.536 17.8398C143.497 17.8398 143.448 17.8398 143.39 17.8398C143.331 17.8301 143.297 17.8057 143.287 17.7666C143.268 17.7471 143.248 17.6885 143.229 17.5908C143.209 17.4932 143.199 17.4346 143.199 17.415C143.15 17.3271 143.087 17.2197 143.009 17.0928C142.931 16.9658 142.843 16.834 142.745 16.6973C142.647 16.5508 142.54 16.4092 142.423 16.2725C142.306 16.1357 142.188 16.0186 142.071 15.9209C141.964 15.8428 141.847 15.7988 141.72 15.7891C141.603 15.7695 141.505 15.7598 141.427 15.7598L140.855 15.9502C140.836 15.9502 140.787 15.9355 140.709 15.9062C140.641 15.877 140.592 15.8623 140.562 15.8623H140.504C140.484 15.8623 140.47 15.8623 140.46 15.8623C140.45 15.8525 140.436 15.8477 140.416 15.8477C140.367 15.8477 140.304 15.877 140.226 15.9355C140.147 15.9941 140.069 16.0674 139.991 16.1553C139.923 16.2334 139.859 16.3164 139.801 16.4043C139.742 16.4922 139.713 16.5654 139.713 16.624C139.713 16.6436 139.708 16.707 139.698 16.8145C139.688 16.9121 139.684 16.9951 139.684 17.0635C139.684 17.083 139.684 17.1123 139.684 17.1514C139.684 17.1904 139.688 17.2295 139.698 17.2686C139.698 17.3076 139.703 17.3564 139.713 17.415C139.713 17.4932 139.728 17.6348 139.757 17.8398C139.786 18.0352 139.82 18.2451 139.859 18.4697C139.898 18.6846 139.933 18.8945 139.962 19.0996C140.001 19.2949 140.025 19.4316 140.035 19.5098C140.172 19.6562 140.27 19.793 140.328 19.9199C140.387 20.0371 140.44 20.1445 140.489 20.2422C140.548 20.3398 140.626 20.418 140.724 20.4766C140.831 20.5254 140.997 20.5498 141.222 20.5498C141.466 20.5498 141.705 20.5254 141.939 20.4766C142.184 20.4277 142.428 20.3936 142.672 20.374H143.023C143.043 20.374 143.097 20.3496 143.185 20.3008C143.282 20.252 143.341 20.2178 143.36 20.1982L143.712 20.125C143.751 20.1055 143.8 20.0908 143.858 20.0811C143.927 20.0615 143.961 20.042 143.961 20.0225C143.99 20.0029 144.063 19.9492 144.181 19.8613C144.298 19.7637 144.376 19.71 144.415 19.7002C144.513 19.6221 144.615 19.5781 144.723 19.5684C144.83 19.5488 144.923 19.5 145.001 19.4219C145.118 19.3242 145.23 19.2168 145.338 19.0996C145.455 18.9727 145.572 18.8555 145.689 18.748C145.807 18.6406 145.934 18.5527 146.07 18.4844C146.217 18.416 146.378 18.3818 146.554 18.3818H146.861C146.939 18.4307 146.988 18.499 147.008 18.5869C147.027 18.6748 147.037 18.7627 147.037 18.8506C147.037 19.2998 146.915 19.7246 146.671 20.125C146.671 20.1348 146.651 20.1641 146.612 20.2129C146.583 20.2617 146.544 20.3154 146.495 20.374C146.456 20.4326 146.417 20.4912 146.378 20.5498C146.349 20.5986 146.329 20.6328 146.319 20.6523C146.31 20.6621 146.3 20.6914 146.29 20.7402C146.28 20.7891 146.271 20.8428 146.261 20.9014C146.261 20.96 146.256 21.0186 146.246 21.0771C146.236 21.126 146.227 21.1553 146.217 21.165C146.217 21.1846 146.207 21.2139 146.188 21.2529C146.178 21.292 146.163 21.3213 146.144 21.3408C146.124 21.3701 146.085 21.4141 146.026 21.4727C145.978 21.5312 145.919 21.5947 145.851 21.6631C145.782 21.7217 145.719 21.7803 145.66 21.8389C145.602 21.8975 145.562 21.9365 145.543 21.9561H145.411C145.235 21.9561 145.06 21.9707 144.884 22C144.679 22.0293 144.474 22.0439 144.269 22.0439C144.063 22.0439 143.878 22.0146 143.712 21.9561C143.546 21.8877 143.341 21.8535 143.097 21.8535C143.048 21.8535 142.97 21.8584 142.862 21.8682C142.755 21.8682 142.691 21.8682 142.672 21.8682L141.983 21.9707C141.769 22.0098 141.549 22.0293 141.324 22.0293C141.1 22.0391 140.875 22.0439 140.65 22.0439H139.581C139.425 22.0439 139.288 22.0293 139.171 22C139.054 21.9707 138.927 21.9561 138.79 21.9561C138.692 21.9561 138.595 21.9854 138.497 22.0439C138.409 22.1025 138.321 22.1318 138.233 22.1318L137.428 21.9561C137.418 21.9561 137.379 21.9658 137.311 21.9854C137.242 21.9951 137.164 22.0098 137.076 22.0293C136.988 22.0488 136.896 22.0684 136.798 22.0879C136.7 22.1074 136.622 22.1221 136.563 22.1318C136.446 22.1318 136.319 22.1172 136.183 22.0879C136.056 22.0586 135.934 22.0146 135.816 21.9561C135.709 21.8877 135.616 21.8096 135.538 21.7217C135.46 21.624 135.421 21.5068 135.421 21.3701ZM148.868 21.3701C148.868 21.3506 148.893 21.2969 148.941 21.209C148.99 21.1211 149.024 21.0625 149.044 21.0332C149.181 20.8574 149.366 20.7354 149.601 20.667C149.835 20.5889 150.064 20.5498 150.289 20.5498C150.357 20.5498 150.416 20.5498 150.465 20.5498C150.523 20.5498 150.582 20.5596 150.641 20.5791C150.748 20.501 150.836 20.4082 150.904 20.3008C150.982 20.1934 151.046 20.0762 151.095 19.9492C151.085 19.9102 151.075 19.8467 151.065 19.7588C151.056 19.6611 151.051 19.5537 151.051 19.4365C151.051 19.3291 151.056 19.2266 151.065 19.1289C151.075 19.0215 151.085 18.9482 151.095 18.9092C151.114 18.7529 151.163 18.6113 151.241 18.4844C151.319 18.3574 151.358 18.2109 151.358 18.0449V17.9131L151.183 17.5615V17.1367C151.153 16.873 151.114 16.6094 151.065 16.3457C151.017 16.0723 150.992 15.7939 150.992 15.5107L151.183 14.4414L151.153 13.8848C151.153 13.8457 151.153 13.8066 151.153 13.7676C151.153 13.7188 151.163 13.6748 151.183 13.6357C151.202 13.4795 151.217 13.3232 151.227 13.167C151.246 13.0107 151.256 12.8545 151.256 12.6982C151.256 12.542 151.246 12.3906 151.227 12.2441C151.217 12.0879 151.202 11.9268 151.183 11.7607C151.163 11.6533 151.153 11.541 151.153 11.4238C151.163 11.2969 151.144 11.1797 151.095 11.0723C151.017 10.9258 150.924 10.7891 150.816 10.6621C150.709 10.5254 150.592 10.4082 150.465 10.3105C150.348 10.2129 150.221 10.1543 150.084 10.1348C149.947 10.1055 149.806 10.0859 149.659 10.0762C149.522 10.0566 149.391 10.0225 149.264 9.97363C149.146 9.9248 149.049 9.82715 148.971 9.68066C148.961 9.6709 148.956 9.65625 148.956 9.63672C148.946 9.62695 148.941 9.60742 148.941 9.57812C148.941 9.49023 148.966 9.42188 149.015 9.37305C149.073 9.31445 149.137 9.27051 149.205 9.24121C149.283 9.21191 149.366 9.19238 149.454 9.18262C149.542 9.17285 149.615 9.16309 149.674 9.15332H150.289C150.426 9.13379 150.567 9.09473 150.714 9.03613C150.87 8.97754 151.026 8.94824 151.183 8.94824C151.202 8.94824 151.236 8.94824 151.285 8.94824C151.334 8.94824 151.358 8.95801 151.358 8.97754C151.368 8.97754 151.422 9.00684 151.52 9.06543C151.617 9.12402 151.681 9.15332 151.71 9.15332H152.311L153.277 9.22656C153.297 9.24609 153.336 9.25586 153.395 9.25586C153.463 9.25586 153.507 9.25586 153.526 9.25586C153.683 9.25586 153.81 9.24121 153.907 9.21191C154.015 9.17285 154.151 9.15332 154.317 9.15332C154.669 9.15332 155.03 9.16797 155.401 9.19727C155.772 9.22656 156.139 9.29492 156.5 9.40234C156.734 9.4707 156.959 9.5293 157.174 9.57812C157.389 9.61719 157.589 9.6709 157.774 9.73926C157.97 9.79785 158.15 9.88574 158.316 10.0029C158.492 10.1104 158.653 10.2666 158.8 10.4717C158.917 10.6475 159.01 10.7939 159.078 10.9111C159.156 11.0186 159.215 11.1309 159.254 11.248C159.293 11.3555 159.317 11.4824 159.327 11.6289C159.337 11.7656 159.342 11.9463 159.342 12.1709C159.342 12.3662 159.312 12.5566 159.254 12.7422C159.205 12.918 159.107 13.0791 158.961 13.2256C158.932 13.2549 158.878 13.3135 158.8 13.4014C158.722 13.4893 158.634 13.582 158.536 13.6797C158.438 13.7676 158.346 13.8555 158.258 13.9434C158.18 14.0312 158.126 14.0898 158.097 14.1191C158.058 14.1191 157.989 14.1289 157.892 14.1484C157.804 14.168 157.755 14.1924 157.745 14.2217C157.726 14.2314 157.677 14.2559 157.599 14.2949C157.53 14.3242 157.452 14.3584 157.364 14.3975C157.286 14.4268 157.213 14.4609 157.145 14.5C157.076 14.5293 157.037 14.5439 157.027 14.5439C156.979 14.5635 156.92 14.5781 156.852 14.5879C156.793 14.5977 156.734 14.6123 156.676 14.6318C156.617 14.6416 156.568 14.666 156.529 14.7051C156.49 14.7344 156.471 14.7832 156.471 14.8516C156.471 14.9785 156.49 15.1152 156.529 15.2617C156.568 15.3984 156.617 15.5352 156.676 15.6719C156.744 15.7988 156.822 15.9209 156.91 16.0381C156.998 16.1553 157.091 16.248 157.188 16.3164C157.208 16.3359 157.252 16.375 157.32 16.4336C157.398 16.4824 157.447 16.5068 157.467 16.5068L157.555 16.6094C157.574 16.6191 157.618 16.6777 157.687 16.7852C157.765 16.8828 157.818 16.9414 157.848 16.9609C157.848 16.9609 157.867 16.9854 157.906 17.0342C157.945 17.0732 157.989 17.1172 158.038 17.166C158.087 17.2148 158.131 17.2637 158.17 17.3125C158.219 17.3613 158.253 17.3955 158.272 17.415C158.282 17.4346 158.312 17.498 158.36 17.6055C158.409 17.7031 158.463 17.8105 158.521 17.9277C158.58 18.0449 158.634 18.1572 158.683 18.2646C158.741 18.3623 158.78 18.4258 158.8 18.4551C158.81 18.4746 158.839 18.5186 158.888 18.5869C158.937 18.6553 158.99 18.7334 159.049 18.8213C159.117 18.9092 159.186 18.9971 159.254 19.085C159.322 19.1631 159.376 19.2217 159.415 19.2607C159.522 19.3877 159.635 19.4951 159.752 19.583C159.869 19.6709 159.991 19.7686 160.118 19.876L160.836 20.4033L161.744 20.5059C161.783 20.5156 161.847 20.54 161.935 20.5791C162.022 20.6182 162.105 20.6719 162.184 20.7402C162.271 20.7988 162.345 20.8672 162.403 20.9453C162.472 21.0137 162.506 21.0869 162.506 21.165C162.506 21.2041 162.481 21.2725 162.433 21.3701C162.384 21.458 162.32 21.5508 162.242 21.6484C162.174 21.7363 162.096 21.8193 162.008 21.8975C161.93 21.9658 161.856 22 161.788 22H160.572C160.465 21.9121 160.309 21.8486 160.104 21.8096C159.898 21.7705 159.728 21.7412 159.591 21.7217H158.521C158.131 21.585 157.843 21.3848 157.657 21.1211C157.472 20.8477 157.315 20.5254 157.188 20.1543C157.188 20.1348 157.169 20.0908 157.13 20.0225C157.101 19.9443 157.032 19.8369 156.925 19.7002L156.822 19.2607C156.822 19.2412 156.812 19.2119 156.793 19.1729C156.783 19.1338 156.769 19.1045 156.749 19.085C156.69 18.9971 156.607 18.8799 156.5 18.7334C156.402 18.5771 156.3 18.4209 156.192 18.2646C156.095 18.1084 156.002 17.9766 155.914 17.8691C155.836 17.752 155.792 17.6836 155.782 17.6641L154.728 16.5068C154.591 16.3701 154.435 16.2578 154.259 16.1699C154.083 16.082 153.907 16.0381 153.731 16.0381C153.692 16.0381 153.658 16.043 153.629 16.0527C153.6 16.0625 153.575 16.0918 153.556 16.1406C153.556 16.1699 153.561 16.2139 153.57 16.2725C153.58 16.3213 153.585 16.3799 153.585 16.4482C153.585 16.5166 153.58 16.5801 153.57 16.6387C153.561 16.6973 153.556 16.7363 153.556 16.7559L153.482 17.1367V18.1768C153.482 18.1963 153.468 18.2598 153.438 18.3672C153.419 18.4746 153.399 18.5527 153.38 18.6016C153.38 18.8066 153.404 18.9775 153.453 19.1143C153.512 19.2412 153.58 19.4023 153.658 19.5977L153.556 20.0518C153.556 20.2275 153.619 20.335 153.746 20.374C153.883 20.4131 154.024 20.4424 154.171 20.4619C154.327 20.4814 154.469 20.5303 154.596 20.6084C154.732 20.6865 154.801 20.8477 154.801 21.0918C154.801 21.2383 154.757 21.3506 154.669 21.4287C154.591 21.4971 154.493 21.5459 154.376 21.5752C154.259 21.6045 154.132 21.624 153.995 21.6338C153.868 21.6338 153.756 21.6387 153.658 21.6484H151.959C151.91 21.6582 151.817 21.6729 151.681 21.6924C151.554 21.7021 151.412 21.7168 151.256 21.7363C151.109 21.7461 150.968 21.7607 150.831 21.7803C150.694 21.7998 150.597 21.8145 150.538 21.8242C150.431 21.9023 150.348 21.9512 150.289 21.9707C150.24 21.9902 150.172 22 150.084 22C149.928 22 149.801 21.9707 149.703 21.9121C149.615 21.8535 149.513 21.79 149.396 21.7217C149.386 21.7217 149.342 21.7168 149.264 21.707C149.186 21.6875 149.137 21.668 149.117 21.6484C149.078 21.6191 149.024 21.5703 148.956 21.502C148.897 21.4238 148.868 21.3799 148.868 21.3701ZM153.204 13.2256C153.224 13.2549 153.238 13.3184 153.248 13.416C153.268 13.5137 153.277 13.5723 153.277 13.5918C153.307 13.6797 153.326 13.7773 153.336 13.8848C153.346 13.9922 153.36 14.0996 153.38 14.207C153.399 14.3145 153.429 14.4121 153.468 14.5C153.507 14.5879 153.57 14.6611 153.658 14.7197C153.834 14.8564 153.99 14.9541 154.127 15.0127C154.273 15.0615 154.474 15.0859 154.728 15.0859C154.747 15.0859 154.786 15.0762 154.845 15.0566C154.913 15.0273 154.957 15.0127 154.977 15.0127L155.782 14.4707C155.841 14.4316 155.914 14.3975 156.002 14.3682C156.09 14.3291 156.173 14.2852 156.251 14.2363C156.329 14.1875 156.397 14.1338 156.456 14.0752C156.524 14.0166 156.563 13.9482 156.573 13.8701C156.573 13.8506 156.578 13.8018 156.588 13.7236C156.598 13.6455 156.607 13.5625 156.617 13.4746C156.627 13.377 156.637 13.2793 156.646 13.1816C156.656 13.084 156.666 13.0059 156.676 12.9473V12.8447C156.676 12.4053 156.593 11.9756 156.427 11.5557C156.271 11.1357 156.021 10.7744 155.68 10.4717C155.572 10.3643 155.46 10.2666 155.343 10.1787C155.235 10.0811 155.099 10.0322 154.933 10.0322H154.728L153.834 10.1201C153.58 10.2959 153.424 10.501 153.365 10.7354C153.307 10.96 153.277 11.2188 153.277 11.5117V12.5957C153.277 12.625 153.268 12.708 153.248 12.8447C153.238 12.9717 153.224 13.0693 153.204 13.1377V13.2256Z" fill="black"/>
<path d="M48.4092 10.9697C48.4092 10.6963 48.4678 10.4375 48.585 10.1934C48.7119 9.94922 48.7949 9.69531 48.834 9.43164C48.834 9.41211 48.8389 9.35352 48.8486 9.25586C48.8584 9.1582 48.8682 9.05566 48.8779 8.94824C48.8975 8.83105 48.9121 8.72363 48.9219 8.62598C48.9414 8.52832 48.9561 8.46484 48.9658 8.43555C48.9854 8.40625 49.0244 8.33789 49.083 8.23047C49.1416 8.11328 49.2002 7.99609 49.2588 7.87891C49.3271 7.75195 49.3906 7.63477 49.4492 7.52734C49.5176 7.41992 49.5615 7.35156 49.5811 7.32227C49.5811 7.3125 49.5859 7.28809 49.5957 7.24902C49.6055 7.2002 49.6152 7.15625 49.625 7.11719C49.6445 7.06836 49.6592 7.02441 49.6689 6.98535C49.6787 6.93652 49.6836 6.90723 49.6836 6.89746C49.9863 6.2334 50.3867 5.6377 50.8848 5.11035C51.3828 4.57324 51.9199 4.08496 52.4961 3.64551C52.5156 3.63574 52.5596 3.61133 52.6279 3.57227C52.7061 3.5332 52.7842 3.49414 52.8623 3.45508C52.9404 3.40625 53.0137 3.3623 53.082 3.32324C53.1504 3.27441 53.1895 3.24023 53.1992 3.2207C53.2676 3.20117 53.3555 3.15723 53.4629 3.08887C53.5703 3.01074 53.6338 2.96191 53.6533 2.94238C53.6631 2.93262 53.6875 2.9082 53.7266 2.86914C53.7656 2.82031 53.8047 2.77148 53.8438 2.72266C53.8926 2.67383 53.9414 2.62988 53.9902 2.59082C54.0391 2.54199 54.0732 2.51758 54.0928 2.51758C54.1025 2.50781 54.1367 2.49805 54.1953 2.48828C54.2637 2.46875 54.3369 2.4541 54.415 2.44434C54.5029 2.4248 54.5811 2.41016 54.6494 2.40039C54.7178 2.39062 54.7666 2.38574 54.7959 2.38574C54.8057 2.37598 54.835 2.35645 54.8838 2.32715C54.9326 2.29785 54.9863 2.26855 55.0449 2.23926C55.1133 2.2002 55.1768 2.1709 55.2354 2.15137C55.2939 2.12207 55.333 2.10742 55.3525 2.10742H55.3818H55.4844C55.5918 2.07812 55.6992 2.0293 55.8066 1.96094C55.9141 1.89258 56.0215 1.8291 56.1289 1.77051C56.2461 1.70215 56.3584 1.64355 56.4658 1.59473C56.583 1.5459 56.7002 1.52148 56.8174 1.52148H56.9053C56.915 1.54102 56.9541 1.5752 57.0225 1.62402C57.1006 1.66309 57.1543 1.68262 57.1836 1.68262C57.2227 1.66309 57.291 1.62402 57.3887 1.56543C57.4961 1.49707 57.5693 1.44336 57.6084 1.4043C57.9209 1.35547 58.2334 1.31641 58.5459 1.28711C58.8584 1.25781 59.1709 1.24316 59.4834 1.24316C59.7959 1.24316 60.1133 1.25781 60.4355 1.28711C60.7578 1.31641 61.085 1.35547 61.417 1.4043C61.4268 1.4043 61.4805 1.41406 61.5781 1.43359C61.6855 1.45312 61.8076 1.47754 61.9443 1.50684C62.0811 1.53613 62.2178 1.56543 62.3545 1.59473C62.4912 1.62402 62.5986 1.65332 62.6768 1.68262C62.6963 1.68262 62.7402 1.70215 62.8086 1.74121C62.8867 1.78027 62.9355 1.7998 62.9551 1.7998C62.9648 1.81934 62.9941 1.8584 63.043 1.91699C63.1016 1.97559 63.1602 2.03906 63.2188 2.10742C63.2871 2.17578 63.3506 2.23926 63.4092 2.29785C63.4678 2.34668 63.5117 2.37598 63.541 2.38574C63.5801 2.40527 63.6436 2.4248 63.7314 2.44434C63.8291 2.4541 63.9316 2.46875 64.0391 2.48828C64.1562 2.49805 64.2686 2.50781 64.376 2.51758C64.4932 2.51758 64.5957 2.51758 64.6836 2.51758H64.8008C64.8105 2.54688 64.8301 2.58594 64.8594 2.63477C64.8984 2.67383 64.9375 2.71777 64.9766 2.7666C65.0254 2.80566 65.0693 2.84473 65.1084 2.88379C65.1572 2.91309 65.1914 2.93262 65.2109 2.94238C65.2207 2.95215 65.2451 2.9668 65.2842 2.98633C65.333 2.99609 65.3818 3.01074 65.4307 3.03027C65.4795 3.04004 65.5234 3.05469 65.5625 3.07422C65.6113 3.08398 65.6357 3.08887 65.6357 3.08887C65.6553 3.08887 65.7041 3.13281 65.7822 3.2207C65.8604 3.30859 65.9043 3.35742 65.9141 3.36719C66.0117 3.43555 66.1143 3.49414 66.2217 3.54297C66.3291 3.58203 66.4365 3.62109 66.5439 3.66016C66.6611 3.69922 66.7734 3.73828 66.8809 3.77734C66.9883 3.81641 67.0908 3.87012 67.1885 3.93848C67.208 3.93848 67.252 3.97754 67.3203 4.05566C67.3887 4.13379 67.4473 4.1875 67.4961 4.2168C67.9062 4.68555 68.2822 5.14453 68.624 5.59375C68.9658 6.0332 69.2881 6.51172 69.5908 7.0293C69.6885 7.19531 69.791 7.41992 69.8984 7.70312C70.0156 7.97656 70.123 8.26465 70.2207 8.56738C70.3184 8.86035 70.3965 9.14844 70.4551 9.43164C70.5234 9.71484 70.5674 9.94922 70.5869 10.1348V11.248C70.5869 11.2969 70.6064 11.3799 70.6455 11.4971C70.6846 11.6045 70.7139 11.668 70.7334 11.6875V11.7607C70.7334 12.0049 70.7139 12.2295 70.6748 12.4346C70.6357 12.6396 70.5869 12.8398 70.5283 13.0352C70.4697 13.2207 70.4062 13.4111 70.3379 13.6064C70.2695 13.8018 70.2061 14.0068 70.1475 14.2217C70.1084 14.3975 70.084 14.5488 70.0742 14.6758C70.0645 14.8027 70.0498 14.9248 70.0303 15.042C70.0205 15.1592 69.9961 15.2812 69.957 15.4082C69.918 15.5254 69.8496 15.6621 69.752 15.8184C69.7422 15.8281 69.7129 15.8525 69.6641 15.8916C69.625 15.9307 69.5811 15.9746 69.5322 16.0234C69.4834 16.0625 69.4346 16.1064 69.3857 16.1553C69.3467 16.1943 69.3223 16.2188 69.3125 16.2285C69.3027 16.2383 69.2734 16.2773 69.2246 16.3457C69.1855 16.4141 69.1416 16.4922 69.0928 16.5801C69.0537 16.6582 69.0098 16.7314 68.9609 16.7998C68.9219 16.8682 68.8975 16.9121 68.8877 16.9316C68.751 17.1465 68.5996 17.3467 68.4336 17.5322C68.2676 17.7178 68.0918 17.8984 67.9062 18.0742C67.7207 18.2402 67.5303 18.4062 67.335 18.5723C67.1494 18.7285 66.9639 18.8896 66.7783 19.0557C66.71 19.1045 66.5977 19.1924 66.4414 19.3193C66.2949 19.4463 66.1387 19.5781 65.9727 19.7148C65.8066 19.8516 65.6504 19.9785 65.5039 20.0957C65.3574 20.2129 65.2598 20.291 65.2109 20.3301C65.1328 20.3887 65.0059 20.4473 64.8301 20.5059C64.6641 20.5645 64.4932 20.6279 64.3174 20.6963C64.1416 20.7646 63.9854 20.8379 63.8486 20.916C63.7217 20.9844 63.6582 21.0674 63.6582 21.165C63.6582 21.2725 63.6777 21.3506 63.7168 21.3994C63.7559 21.4385 63.834 21.502 63.9512 21.5898C63.9902 21.6094 64.0391 21.6436 64.0977 21.6924C64.1562 21.7412 64.2148 21.79 64.2734 21.8389C64.332 21.8779 64.3857 21.917 64.4346 21.9561C64.4834 21.9951 64.5127 22.0195 64.5225 22.0293C64.5322 22.0293 64.5713 22.0342 64.6396 22.0439C64.708 22.0537 64.7812 22.0635 64.8594 22.0732C64.9375 22.0928 65.0107 22.1074 65.0791 22.1172C65.1475 22.1367 65.1914 22.1465 65.2109 22.1465C65.2402 22.166 65.3086 22.2002 65.416 22.249C65.5332 22.3076 65.6553 22.3711 65.7822 22.4395C65.9092 22.5078 66.0264 22.5664 66.1338 22.6152C66.251 22.6738 66.3242 22.7031 66.3535 22.7031C66.6367 22.8398 66.915 22.9277 67.1885 22.9668C67.4717 23.0059 67.7598 23.0645 68.0527 23.1426C68.0723 23.1426 68.1162 23.1621 68.1846 23.2012C68.2627 23.25 68.3115 23.2793 68.3311 23.2891C68.3994 23.3184 68.4971 23.3525 68.624 23.3916C68.7607 23.4404 68.8926 23.4844 69.0195 23.5234C69.1562 23.5723 69.2783 23.6113 69.3857 23.6406C69.4932 23.6797 69.5615 23.6992 69.5908 23.6992C69.6299 23.709 69.7227 23.7285 69.8691 23.7578C70.0254 23.7871 70.1914 23.8164 70.3672 23.8457C70.543 23.875 70.7041 23.8994 70.8506 23.9189C71.0068 23.9482 71.1045 23.9678 71.1436 23.9775C71.1826 23.9873 71.29 24.0215 71.4658 24.0801C71.6514 24.1484 71.8564 24.2168 72.0811 24.2852C72.3057 24.3633 72.5303 24.4365 72.7549 24.5049C72.9795 24.583 73.1504 24.6416 73.2676 24.6807C73.4434 24.749 73.6143 24.8076 73.7803 24.8564C73.9561 24.9053 74.127 24.959 74.293 25.0176C74.459 25.0859 74.6201 25.1592 74.7764 25.2373C74.9424 25.3154 75.0986 25.418 75.2451 25.5449C75.3428 25.5645 75.5186 25.5986 75.7725 25.6475C76.0361 25.6963 76.3096 25.75 76.5928 25.8086C76.8857 25.8672 77.1543 25.9209 77.3984 25.9697C77.6523 26.0283 77.8232 26.0723 77.9111 26.1016C77.9502 26.1016 78.0234 26.1211 78.1309 26.1602C78.248 26.209 78.3164 26.2432 78.3359 26.2627C78.668 26.3896 79.0049 26.4824 79.3467 26.541C79.6885 26.6094 80.0352 26.6631 80.3867 26.7021C80.7383 26.7412 81.085 26.7754 81.4268 26.8047C81.7783 26.834 82.125 26.8779 82.4668 26.9365C82.4863 26.9561 82.5498 26.9854 82.6572 27.0244C82.7646 27.0732 82.8281 27.0977 82.8477 27.0977H83.082H83.3018C83.3213 27.0977 83.3848 27.0732 83.4922 27.0244C83.6094 26.9854 83.6924 26.9561 83.7412 26.9365H85.1328L85.2793 26.8193H87.3887C87.4082 26.8193 87.4521 26.7998 87.5205 26.7607C87.5889 26.7217 87.6475 26.6875 87.6963 26.6582C87.8623 26.5605 88.0283 26.4775 88.1943 26.4092C88.3604 26.3506 88.5264 26.2969 88.6924 26.248C88.8682 26.1992 89.0439 26.1504 89.2197 26.1016C89.4053 26.0625 89.5957 26.0137 89.791 25.9551C89.9766 25.916 90.1475 25.8379 90.3037 25.7207C90.4697 25.6133 90.6309 25.501 90.7871 25.3838C90.9531 25.2764 91.1191 25.1787 91.2852 25.0908C91.4512 25.0029 91.6367 24.959 91.8418 24.959C91.998 24.959 92.125 24.9834 92.2227 25.0322C92.3301 25.0908 92.4131 25.1641 92.4717 25.252C92.5303 25.3398 92.5693 25.4424 92.5889 25.5596C92.6182 25.6768 92.6328 25.7988 92.6328 25.9258C92.6328 26.1113 92.5986 26.2822 92.5303 26.4385C92.4619 26.6045 92.374 26.7559 92.2666 26.8926C92.1592 27.0391 92.0371 27.1758 91.9004 27.3027C91.7637 27.4297 91.627 27.5469 91.4902 27.6543C91.0801 27.9863 90.665 28.2549 90.2451 28.46C89.835 28.665 89.4053 28.8701 88.9561 29.0752C88.8291 29.1338 88.6973 29.1729 88.5605 29.1924C88.4238 29.2217 88.2871 29.2461 88.1504 29.2656C88.0234 29.2949 87.8916 29.3242 87.7549 29.3535C87.6279 29.3926 87.5059 29.4414 87.3887 29.5C87.3594 29.5195 87.2959 29.5537 87.1982 29.6025C87.1104 29.6514 87.0127 29.7051 86.9053 29.7637C86.7979 29.8223 86.6953 29.876 86.5977 29.9248C86.5 29.9834 86.4316 30.0273 86.3926 30.0566C85.6602 30.0762 84.9424 30.125 84.2393 30.2031C83.5361 30.291 82.8184 30.335 82.0859 30.335H80.8701C80.6455 30.2373 80.4258 30.1836 80.2109 30.1738C79.9961 30.1641 79.752 30.125 79.4785 30.0566C79.459 30.0566 79.415 30.0322 79.3467 29.9834C79.2783 29.9346 79.2393 29.9102 79.2295 29.9102H78.585H78.3359C78.2871 29.9004 78.1553 29.8711 77.9404 29.8223C77.7354 29.7734 77.5059 29.7197 77.252 29.6611C77.0078 29.6025 76.7637 29.5439 76.5195 29.4854C76.2754 29.4268 76.0898 29.3828 75.9629 29.3535C75.9434 29.3535 75.8896 29.3291 75.8018 29.2803C75.7236 29.2412 75.6748 29.2119 75.6553 29.1924H75.5234C75.4453 29.1924 75.3574 29.1973 75.2598 29.207C75.1621 29.2168 75.0547 29.2217 74.9375 29.2217C74.8301 29.2217 74.7129 29.2119 74.5859 29.1924C74.4688 29.1729 74.3613 29.1338 74.2637 29.0752C74.2441 29.0654 74.2148 29.0361 74.1758 28.9873C74.1367 28.9482 74.0928 28.9043 74.0439 28.8555C74.0049 28.8066 73.9609 28.7578 73.9121 28.709C73.873 28.6699 73.8438 28.6455 73.8242 28.6357H73.7217H73.3701H73.2676C73.248 28.6357 73.1895 28.6211 73.0918 28.5918C73.0039 28.5723 72.9014 28.543 72.7842 28.5039C72.6768 28.4746 72.5742 28.4453 72.4766 28.416C72.3789 28.3867 72.3154 28.3672 72.2861 28.3574C72.2666 28.3574 72.2129 28.3477 72.125 28.3281C72.0469 28.3184 71.959 28.3037 71.8613 28.2842C71.7637 28.2744 71.6709 28.2598 71.583 28.2402C71.5049 28.2305 71.4512 28.2207 71.4219 28.2109C71.4023 28.2109 71.3535 28.167 71.2754 28.0791C71.207 28.001 71.1631 27.9521 71.1436 27.9326C71.1143 27.9229 71.0459 27.9033 70.9385 27.874C70.8311 27.8545 70.7139 27.8252 70.5869 27.7861C70.46 27.7568 70.3428 27.7275 70.2354 27.6982C70.1279 27.6787 70.0596 27.6641 70.0303 27.6543C70.0107 27.6445 69.957 27.6201 69.8691 27.5811C69.791 27.542 69.7031 27.498 69.6055 27.4492C69.5078 27.4004 69.415 27.3564 69.3271 27.3174C69.249 27.2783 69.1953 27.2539 69.166 27.2441C69.1562 27.2344 69.1221 27.2197 69.0635 27.2002C69.0146 27.1904 68.9561 27.1758 68.8877 27.1562C68.8291 27.1465 68.7705 27.1318 68.7119 27.1123C68.6533 27.1025 68.6191 27.0977 68.6094 27.0977C68.5605 27.0781 68.4824 27.0488 68.375 27.0098C68.2676 26.9805 68.1992 26.9561 68.1699 26.9365C68.1504 26.9365 68.0869 26.9072 67.9795 26.8486C67.8721 26.79 67.7549 26.7266 67.6279 26.6582C67.501 26.5996 67.3789 26.541 67.2617 26.4824C67.1543 26.4238 67.0859 26.3896 67.0566 26.3799H66.8809H66.3242H66.1924C66.1729 26.3799 66.1289 26.3506 66.0605 26.292C65.9922 26.2432 65.9189 26.1846 65.8408 26.1162C65.7627 26.0479 65.6895 25.9844 65.6211 25.9258C65.5625 25.877 65.5283 25.8428 65.5186 25.8232C65.3623 25.7158 65.1963 25.6572 65.0205 25.6475C64.8447 25.6475 64.6787 25.6133 64.5225 25.5449C64.2393 25.418 63.9805 25.2666 63.7461 25.0908C63.5215 24.9248 63.2578 24.7881 62.9551 24.6807C62.9355 24.6807 62.8867 24.6709 62.8086 24.6514C62.7305 24.6416 62.6426 24.627 62.5449 24.6074C62.457 24.5977 62.3691 24.5879 62.2812 24.5781C62.2031 24.5684 62.1494 24.5635 62.1201 24.5635C62.0713 24.5439 61.9883 24.5146 61.8711 24.4756C61.7637 24.4463 61.7051 24.4219 61.6953 24.4023C61.6855 24.4023 61.666 24.3779 61.6367 24.3291C61.6172 24.29 61.5928 24.2461 61.5635 24.1973C61.5342 24.1484 61.5049 24.0996 61.4756 24.0508C61.4463 24.0117 61.4268 23.9873 61.417 23.9775H61.1094H60.9775C60.958 23.9775 60.9092 23.9531 60.8311 23.9043C60.7627 23.8652 60.7188 23.8457 60.6992 23.8457C60.6602 23.8262 60.5967 23.8018 60.5088 23.7725C60.4307 23.7432 60.3428 23.7139 60.2451 23.6846C60.1572 23.6553 60.0742 23.626 59.9961 23.5967C59.9277 23.5771 59.8838 23.5674 59.8643 23.5674H59.5859C59.5664 23.5674 59.5273 23.543 59.4688 23.4941C59.4102 23.4551 59.3467 23.4111 59.2783 23.3623C59.2197 23.3135 59.166 23.2646 59.1172 23.2158C59.0684 23.1768 59.0391 23.1523 59.0293 23.1426C58.9902 23.123 58.9121 23.0938 58.7949 23.0547C58.6777 23.0254 58.6094 23.0107 58.5898 23.0107C58.5605 23.001 58.5068 22.9717 58.4287 22.9229C58.3506 22.8838 58.2676 22.8398 58.1797 22.791C58.0918 22.752 58.0039 22.708 57.916 22.6592C57.8379 22.6201 57.7793 22.5957 57.7402 22.5859C57.7207 22.5762 57.6914 22.5566 57.6523 22.5273C57.6133 22.498 57.5693 22.4639 57.5205 22.4248C57.4814 22.3955 57.4424 22.3662 57.4033 22.3369C57.3643 22.3174 57.3398 22.3076 57.3301 22.3076C57.3105 22.2979 57.2715 22.2832 57.2129 22.2637C57.1641 22.2539 57.1055 22.2393 57.0371 22.2197C56.9785 22.21 56.9199 22.1953 56.8613 22.1758C56.8125 22.166 56.7734 22.1562 56.7441 22.1465C56.7148 22.1465 56.6514 22.1416 56.5537 22.1318C56.4561 22.1221 56.3486 22.1074 56.2314 22.0879C56.124 22.0781 56.0215 22.0635 55.9238 22.0439C55.8359 22.0342 55.7822 22.0293 55.7627 22.0293C55.6748 21.9902 55.5332 21.9268 55.3379 21.8389C55.1426 21.7412 54.9375 21.6387 54.7227 21.5312C54.5176 21.4238 54.3271 21.3262 54.1514 21.2383C53.9756 21.1406 53.8633 21.0723 53.8145 21.0332C53.7754 21.0039 53.6973 20.9355 53.5801 20.8281C53.4629 20.7109 53.3408 20.5889 53.2139 20.4619C53.0967 20.3252 52.9844 20.2031 52.877 20.0957C52.7695 19.9785 52.7012 19.9102 52.6719 19.8906C52.6523 19.8906 52.623 19.876 52.584 19.8467C52.5449 19.8174 52.501 19.7881 52.4521 19.7588C52.4033 19.7295 52.3545 19.7002 52.3057 19.6709C52.2666 19.6416 52.2373 19.6221 52.2178 19.6123C52.1299 19.5439 52.0029 19.4414 51.8369 19.3047C51.6709 19.168 51.5 19.0312 51.3242 18.8945C51.1582 18.7578 51.0117 18.6357 50.8848 18.5283C50.7578 18.4209 50.6846 18.3623 50.665 18.3525C50.6553 18.3428 50.6309 18.3086 50.5918 18.25C50.5625 18.1914 50.5234 18.1279 50.4746 18.0596C50.4355 17.9814 50.3916 17.9033 50.3428 17.8252C50.3037 17.7471 50.2695 17.6836 50.2402 17.6348C50.2109 17.5664 50.1621 17.4639 50.0938 17.3271C50.0254 17.1807 49.9521 17.0342 49.874 16.8877C49.8057 16.7314 49.7422 16.5947 49.6836 16.4775C49.625 16.3506 49.5908 16.2676 49.5811 16.2285C49.5322 16.1309 49.4688 15.9893 49.3906 15.8037C49.3125 15.6084 49.2344 15.4131 49.1562 15.2178C49.0781 15.0225 49.0049 14.8467 48.9365 14.6904C48.8779 14.5342 48.8438 14.4365 48.834 14.3975V14.1191V13.416C48.834 13.3867 48.8096 13.3379 48.7607 13.2695C48.7119 13.1914 48.6875 13.1475 48.6875 13.1377C48.6777 13.0693 48.6582 12.9521 48.6289 12.7861C48.6094 12.6104 48.585 12.4248 48.5557 12.2295C48.5264 12.0244 48.4971 11.834 48.4678 11.6582C48.4385 11.4727 48.4189 11.3359 48.4092 11.248V10.9697ZM51.5 11.4824V11.585C51.5293 11.6045 51.5586 11.668 51.5879 11.7754C51.627 11.8828 51.6465 11.9463 51.6465 11.9658C51.7832 12.4932 51.8906 13.0254 51.9688 13.5625C52.0566 14.0898 52.1982 14.6025 52.3936 15.1006C52.6768 15.833 52.999 16.5215 53.3604 17.166C53.7217 17.8105 54.1514 18.4404 54.6494 19.0557C54.6592 19.0752 54.6787 19.1045 54.708 19.1436C54.7471 19.1729 54.7764 19.1875 54.7959 19.1875C54.8154 19.207 54.8789 19.2363 54.9863 19.2754C55.1035 19.3047 55.1768 19.3242 55.2061 19.334C55.2354 19.3535 55.3037 19.4121 55.4111 19.5098C55.5186 19.6074 55.6357 19.7148 55.7627 19.832C55.8896 19.9395 56.0117 20.042 56.1289 20.1396C56.2461 20.2373 56.3193 20.3008 56.3486 20.3301C56.3584 20.3398 56.3926 20.3496 56.4512 20.3594C56.5195 20.3691 56.5928 20.3838 56.6709 20.4033C56.7588 20.4131 56.8369 20.4229 56.9053 20.4326C56.9736 20.4424 57.0225 20.4473 57.0518 20.4473C57.0615 20.457 57.1055 20.4863 57.1836 20.5352C57.2617 20.5742 57.3496 20.6182 57.4473 20.667C57.5449 20.7158 57.6328 20.7646 57.7109 20.8135C57.7988 20.8525 57.8574 20.877 57.8867 20.8867C57.916 20.8965 57.9941 20.9111 58.1211 20.9307C58.248 20.9404 58.3799 20.9551 58.5166 20.9746C58.6631 20.9844 58.7998 20.999 58.9268 21.0186C59.0537 21.0283 59.1318 21.0332 59.1611 21.0332C59.1709 21.0332 59.2002 21.043 59.249 21.0625C59.3076 21.0723 59.3662 21.0869 59.4248 21.1064C59.4834 21.1162 59.542 21.1309 59.6006 21.1504C59.6592 21.1602 59.6982 21.165 59.7178 21.165C59.7178 21.165 59.7373 21.1699 59.7764 21.1797C59.8154 21.1797 59.8594 21.1797 59.9082 21.1797C59.957 21.1797 60.0059 21.1846 60.0547 21.1943C60.1035 21.1943 60.1426 21.1943 60.1719 21.1943C60.2305 21.1943 60.3086 21.1895 60.4062 21.1797C60.5039 21.1699 60.5576 21.165 60.5674 21.165C60.5771 21.165 60.6016 21.1553 60.6406 21.1357C60.6797 21.1064 60.7188 21.0771 60.7578 21.0479C60.8066 21.0088 60.8506 20.9746 60.8896 20.9453C60.9385 20.916 60.9678 20.8965 60.9775 20.8867C61.1143 20.8379 61.2803 20.8086 61.4756 20.7988C61.6709 20.7793 61.8369 20.7158 61.9736 20.6084C61.9932 20.5889 62.0322 20.5449 62.0908 20.4766C62.1592 20.3984 62.2324 20.3203 62.3105 20.2422C62.3887 20.1641 62.4619 20.0908 62.5303 20.0225C62.5986 19.9541 62.6475 19.9102 62.6768 19.8906C62.6963 19.8906 62.7451 19.8857 62.8232 19.876C62.9111 19.8564 63.0039 19.8418 63.1016 19.832C63.1992 19.8125 63.2871 19.7979 63.3652 19.7881C63.4531 19.7686 63.5117 19.7539 63.541 19.7441C63.5508 19.7344 63.5801 19.7051 63.6289 19.6562C63.6875 19.5977 63.7461 19.5342 63.8047 19.4658C63.873 19.3975 63.9316 19.3389 63.9805 19.29C64.0391 19.2314 64.0781 19.1973 64.0977 19.1875C64.1367 19.1582 64.1904 19.1143 64.2588 19.0557C64.3369 18.9873 64.4102 18.9238 64.4785 18.8652C64.5566 18.8066 64.625 18.7578 64.6836 18.7188C64.752 18.6699 64.791 18.6406 64.8008 18.6309C64.8105 18.6211 64.8398 18.6064 64.8887 18.5869C64.9473 18.5674 65.0059 18.5527 65.0645 18.543C65.1328 18.5234 65.1963 18.5088 65.2549 18.499C65.3135 18.4893 65.3477 18.4844 65.3574 18.4844C65.3867 18.4746 65.4209 18.4502 65.46 18.4111C65.5088 18.3623 65.5527 18.3184 65.5918 18.2793C65.6406 18.2305 65.6797 18.1865 65.709 18.1475C65.748 18.1084 65.7773 18.084 65.7969 18.0742C65.8066 18.0547 65.8164 18.0156 65.8262 17.957C65.8359 17.8984 65.8457 17.8398 65.8555 17.7812C65.875 17.7129 65.8896 17.6543 65.8994 17.6055C65.9092 17.5469 65.9141 17.5078 65.9141 17.4883C65.9336 17.4395 65.958 17.3662 65.9873 17.2686C66.0264 17.1611 66.0557 17.0977 66.0752 17.0781C66.085 17.0586 66.1045 17.0293 66.1338 16.9902C66.1631 16.9414 66.1924 16.8975 66.2217 16.8584C66.2607 16.8096 66.29 16.7656 66.3096 16.7266C66.3389 16.6875 66.3535 16.6631 66.3535 16.6533C66.3633 16.624 66.373 16.5508 66.3828 16.4336C66.4023 16.3164 66.417 16.1943 66.4268 16.0674C66.4463 15.9404 66.4609 15.8184 66.4707 15.7012C66.4902 15.584 66.5 15.5107 66.5 15.4814C66.5 15.4717 66.5146 15.4375 66.5439 15.3789C66.5732 15.3105 66.6025 15.2373 66.6318 15.1592C66.6709 15.0811 66.7051 15.0127 66.7344 14.9541C66.7637 14.8857 66.7783 14.8418 66.7783 14.8223C66.7881 14.793 66.7979 14.7441 66.8076 14.6758C66.8271 14.6074 66.8418 14.5342 66.8516 14.4561C66.8711 14.3779 66.8857 14.3096 66.8955 14.251C66.9053 14.1826 66.9102 14.1387 66.9102 14.1191V13.6064V12.3906C66.9297 12.127 66.9834 11.8486 67.0713 11.5557C67.1689 11.2627 67.2178 10.9746 67.2178 10.6914C67.208 10.6914 67.2031 10.6865 67.2031 10.6768V10.6475C67.1934 10.6377 67.1885 10.623 67.1885 10.6035C67.1885 10.5547 67.1445 10.4717 67.0566 10.3545C66.9785 10.2373 66.9297 10.1641 66.9102 10.1348C66.9004 10.1055 66.8809 10.0371 66.8516 9.92969C66.832 9.82227 66.8027 9.70508 66.7637 9.57812C66.7344 9.45117 66.7051 9.33398 66.6758 9.22656C66.6562 9.10938 66.6416 9.03613 66.6318 9.00684C66.6221 8.99707 66.6025 8.96777 66.5732 8.91895C66.5537 8.86035 66.5244 8.80176 66.4854 8.74316C66.4561 8.6748 66.4268 8.61133 66.3975 8.55273C66.3779 8.49414 66.3633 8.45508 66.3535 8.43555C66.3438 8.41602 66.334 8.3623 66.3242 8.27441C66.3145 8.17676 66.2998 8.07422 66.2803 7.9668C66.2705 7.84961 66.2559 7.74219 66.2363 7.64453C66.2168 7.54688 66.2021 7.4834 66.1924 7.4541C66.1924 7.43457 66.1582 7.38574 66.0898 7.30762C66.0215 7.22949 65.9434 7.14648 65.8555 7.05859C65.7773 6.96094 65.7041 6.87305 65.6357 6.79492C65.5674 6.70703 65.5283 6.64844 65.5186 6.61914C65.4111 6.45313 65.3232 6.26758 65.2549 6.0625C65.1963 5.85742 65.1377 5.65234 65.0791 5.44727C65.0205 5.23242 64.9521 5.03223 64.874 4.84668C64.7959 4.66113 64.6787 4.5 64.5225 4.36328C64.5127 4.35352 64.4785 4.33887 64.4199 4.31934C64.3613 4.2998 64.2979 4.28516 64.2295 4.27539C64.1709 4.25586 64.1123 4.24121 64.0537 4.23145C63.9951 4.22168 63.9609 4.2168 63.9512 4.2168C63.9414 4.20703 63.917 4.18262 63.8779 4.14355C63.8389 4.10449 63.7949 4.06055 63.7461 4.01172C63.6973 3.96289 63.6533 3.91895 63.6143 3.87988C63.5752 3.83105 63.5508 3.79687 63.541 3.77734C63.5215 3.76758 63.4824 3.75293 63.4238 3.7334C63.375 3.7041 63.3164 3.6748 63.248 3.64551C63.1797 3.60645 63.1162 3.57715 63.0576 3.55762C62.999 3.52832 62.9648 3.50879 62.9551 3.49902C62.9355 3.48926 62.8965 3.46484 62.8379 3.42578C62.7891 3.37695 62.7305 3.32812 62.6621 3.2793C62.6035 3.23047 62.5449 3.18652 62.4863 3.14746C62.4375 3.1084 62.4082 3.08887 62.3984 3.08887C62.0664 2.98145 61.71 2.91309 61.3291 2.88379C60.958 2.85449 60.6113 2.78125 60.2891 2.66406C60.0938 2.5957 59.9375 2.55664 59.8203 2.54688C59.7031 2.52734 59.5762 2.51758 59.4395 2.51758H59.1611H58.5898C58.5508 2.51758 58.4775 2.54199 58.3701 2.59082C58.2627 2.63965 58.1943 2.66406 58.165 2.66406H57.6377H57.4619C57.4229 2.67383 57.3301 2.71289 57.1836 2.78125C57.0469 2.84961 56.9004 2.92773 56.7441 3.01562C56.5879 3.09375 56.4414 3.17188 56.3047 3.25C56.168 3.31836 56.085 3.35742 56.0557 3.36719C55.7432 3.51367 55.4502 3.66992 55.1768 3.83594C54.9131 4.00195 54.6641 4.18262 54.4297 4.37793C54.1953 4.57324 53.9658 4.7832 53.7412 5.00781C53.5264 5.23242 53.3115 5.48145 53.0967 5.75488C52.9697 5.91113 52.9014 6.07715 52.8916 6.25293C52.8818 6.42871 52.8574 6.59473 52.8184 6.75098C52.8086 6.77051 52.7793 6.82422 52.7305 6.91211C52.6914 7 52.6475 7.09277 52.5986 7.19043C52.5498 7.27832 52.501 7.36621 52.4521 7.4541C52.4131 7.53223 52.3936 7.58105 52.3936 7.60059C52.374 7.63965 52.3496 7.7373 52.3203 7.89355C52.291 8.04004 52.2617 8.20117 52.2324 8.37695C52.2031 8.55273 52.1738 8.71875 52.1445 8.875C52.125 9.02148 52.1152 9.11426 52.1152 9.15332C52.0078 9.55371 51.9053 9.93945 51.8076 10.3105C51.7197 10.6719 51.6172 11.0381 51.5 11.4092V11.4824Z" fill="#4EAD8E"/>
</svg>
