<svg width="29" height="31" viewBox="0 0 29 31" fill="none" xmlns="http://www.w3.org/2000/svg">
<path d="M4.84606 27.5333L7.10045 25.5017L7.11524 25.4883C7.58564 25.0633 7.8238 24.85 8.08859 24.6983C8.32626 24.5617 8.57675 24.4628 8.84005 24.4017C9.13442 24.3333 9.44063 24.3333 10.056 24.3333H22.8974C24.5512 24.3333 25.3796 24.3333 26.0112 23.97C26.5679 23.6504 27.0205 23.1405 27.3041 22.5133C27.6266 21.8 27.6266 20.8667 27.6266 19.0067V6.32833C27.6266 4.465 27.6266 3.53167 27.3041 2.82C27.0201 2.19257 26.567 1.68262 26.0098 1.36333C25.3781 1 24.5497 1 22.893 1H5.73362C4.07685 1 3.24847 1 2.61535 1.36333C2.05869 1.68291 1.60612 2.19282 1.32248 2.82C1 3.53333 1 4.46667 1 6.33333V25.4517C1 27.2283 1 28.1167 1.32248 28.5717C1.46114 28.7678 1.63731 28.9262 1.83786 29.035C2.0384 29.1438 2.25815 29.2002 2.48073 29.2C2.99847 29.2 3.61384 28.6433 4.84606 27.5333Z" fill="#082A52" stroke="#082A52" stroke-width="2" stroke-linecap="round" stroke-linejoin="round"/>
</svg>
