<svg width="38" height="32" viewBox="0 0 38 32" fill="none" xmlns="http://www.w3.org/2000/svg">
<path d="M35.3502 4.5C34.7502 1.9 32.3502 0 29.5502 0H8.55017C7.20963 0.00037122 5.90629 0.440882 4.84039 1.25385C3.7745 2.06682 3.00502 3.20728 2.65017 4.5L0.550167 12.5C0.150167 13.9 0.750167 15.3 1.95017 16.1L2.35017 16.4C2.95017 16.7 3.45017 17 4.05017 17.1V28C4.05333 29.0599 4.47578 30.0755 5.22524 30.8249C5.9747 31.5744 6.99028 31.9968 8.05017 32H12.7502C13.8101 31.9968 14.8256 31.5744 15.5751 30.8249C16.3246 30.0755 16.747 29.0599 16.7502 28V24H22.2502V28C22.2533 29.0599 22.6758 30.0755 23.4252 30.8249C24.1747 31.5744 25.1903 31.9968 26.2502 32H30.0502C31.1101 31.9968 32.1256 31.5744 32.8751 30.8249C33.6246 30.0755 34.047 29.0599 34.0502 28V17.1C34.6175 17.006 35.161 16.8022 35.6502 16.5L36.0502 16.2C36.6433 15.8092 37.0979 15.2411 37.3493 14.5767C37.6007 13.9123 37.636 13.1856 37.4502 12.5L35.3502 4.5ZM30.2502 28H26.2502V24C26.247 22.9401 25.8246 21.9245 25.0751 21.1751C24.3256 20.4256 23.3101 20.0032 22.2502 20H16.7502C15.6903 20.0032 14.6747 20.4256 13.9252 21.1751C13.1758 21.9245 12.7533 22.9401 12.7502 24V28H8.05017V16C9.35017 15.5 10.7502 15.7 11.9502 16.4C12.6552 16.8885 13.4925 17.1502 14.3502 17.1502C15.2079 17.1502 16.0452 16.8885 16.7502 16.4C17.4552 15.9115 18.2925 15.6498 19.1502 15.6498C20.0079 15.6498 20.8452 15.9115 21.5502 16.4C22.2552 16.8885 23.0925 17.1502 23.9502 17.1502C24.8079 17.1502 25.6452 16.8885 26.3502 16.4C26.9178 16.0191 27.5703 15.7834 28.2503 15.7136C28.9303 15.6439 29.6171 15.7422 30.2502 16V28ZM33.1502 13.1C31.7957 12.1719 30.1921 11.6752 28.5502 11.6752C26.9082 11.6752 25.3047 12.1719 23.9502 13.1C23.9326 13.1232 23.91 13.142 23.8839 13.155C23.8579 13.1679 23.8292 13.1747 23.8002 13.1747C23.7711 13.1747 23.7424 13.1679 23.7164 13.155C23.6904 13.142 23.6677 13.1232 23.6502 13.1C22.2957 12.1719 20.6921 11.6752 19.0502 11.6752C17.4082 11.6752 15.8047 12.1719 14.4502 13.1C14.4326 13.1232 14.41 13.142 14.3839 13.155C14.3579 13.1679 14.3292 13.1747 14.3002 13.1747C14.2711 13.1747 14.2424 13.1679 14.2164 13.155C14.1904 13.142 14.1677 13.1232 14.1502 13.1C12.7957 12.1719 11.1921 11.6752 9.55017 11.6752C7.90821 11.6752 6.30465 12.1719 4.95017 13.1C4.93264 13.1232 4.90997 13.142 4.88395 13.155C4.85792 13.1679 4.82924 13.1747 4.80017 13.1747C4.77109 13.1747 4.74242 13.1679 4.71639 13.155C4.69036 13.142 4.66769 13.1232 4.65017 13.1L6.55017 5.5C6.75017 4.6 7.55017 4 8.55017 4H29.6502C30.0906 3.99541 30.5193 4.14174 30.8649 4.41464C31.2106 4.68754 31.4524 5.07057 31.5502 5.5L33.4502 13.1C33.4502 13.1 33.2502 13.2 33.1502 13.1Z" fill="#082A52"/>
</svg>
