<svg width="40" height="40" viewBox="0 0 40 40" fill="none" xmlns="http://www.w3.org/2000/svg">
<path d="M28.5605 22.8895C24.6155 22.8895 21.4175 26.0875 21.4175 30.0324C21.4175 33.9774 24.6155 37.1754 28.5605 37.1754C32.5054 37.1754 35.7034 33.9774 35.7034 30.0324C35.7034 26.0875 32.5054 22.8895 28.5605 22.8895ZM28.5605 34.318C26.1972 34.318 24.2749 32.3953 24.2749 30.0324C24.2749 27.6695 26.1976 25.7469 28.5605 25.7469C30.9237 25.7469 32.846 27.6695 32.846 30.0324C32.846 32.3953 30.9237 34.318 28.5605 34.318Z" fill="#082A52"/>
<path d="M28.0474 30.4121L26.3849 28.9231L24.9552 30.5191L28.2372 33.459L32.2599 28.8316L30.6427 27.4254L28.0474 30.4121ZM8.57471 18.5531H17.1462V21.4102H8.57471V18.5531Z" fill="#082A52"/>
<path d="M7.1334 14.2914H30.0092V21.3023H32.8662V5.67225C32.8662 4.11132 31.5967 2.841 30.0357 2.841H28.967C27.8271 2.841 26.817 3.49452 26.3936 4.50468C26.1705 5.03749 25.3068 5.03827 25.0822 4.50389C24.658 3.49374 23.6482 2.841 22.5088 2.841H21.7994C20.6596 2.841 19.6494 3.49452 19.226 4.50468C19.0029 5.03749 18.1393 5.03827 17.9146 4.50389C17.4904 3.49374 16.4807 2.841 15.3412 2.841H14.6604C13.5205 2.841 12.5104 3.49452 12.0869 4.50468C11.8639 5.03749 11.0002 5.03827 10.7756 4.50389C10.3514 3.49374 9.3416 2.841 8.20215 2.841H7.1252C5.56426 2.841 4.29395 4.11132 4.29395 5.67225V37.123H19.9662V34.266H7.1502L7.1334 14.2914ZM8.1416 5.60819C8.69824 6.93983 9.99004 7.79999 11.4318 7.79999C12.8729 7.79999 14.1646 6.93983 14.6607 5.69843L15.2803 5.60858C15.8369 6.94022 17.1287 7.80038 18.5705 7.80038C20.0115 7.80038 21.3033 6.94022 21.7994 5.69882L22.4475 5.60897C23.0041 6.94061 24.2959 7.80077 25.7377 7.80077C27.1787 7.80077 28.4705 6.94061 28.9666 5.69921L30.0088 5.67343V11.4351H7.13066L7.12559 5.69921L8.1416 5.60819Z" fill="#082A52"/>
</svg>
