<svg width="50" height="50" viewBox="0 0 50 50" fill="none" xmlns="http://www.w3.org/2000/svg">
<g clip-path="url(#clip0_56_2703)">
<path d="M46.4184 22.8298C45.9508 22.8298 45.5719 23.2088 45.5719 23.6763V36.5828L25.8472 47.7045V25.4946L45.5719 14.372V20.2906C45.5719 20.758 45.9509 21.137 46.4184 21.137C46.8859 21.137 47.2648 20.758 47.2648 20.2906V12.923C47.2648 12.9135 47.2631 12.9044 47.2617 12.8954C47.2521 12.6057 47.0959 12.3338 46.8338 12.1861L25.416 0.109009C25.284 0.0344976 25.1341 -0.00241645 24.983 0.000122616L15.1438 0.20149C14.7624 0.209302 14.4334 0.471314 14.3402 0.841138C14.2473 1.21106 14.4132 1.59768 14.7454 1.78499L18.1792 3.72122L14.7331 5.66419L10.1579 3.0844C9.77393 2.8679 9.28818 2.98225 9.04111 3.34729L2.88135 12.4489C2.78877 12.5857 2.74014 12.7451 2.73711 12.9072C2.73662 12.9124 2.73535 12.9174 2.73535 12.9227V37.0773C2.73535 37.3827 2.9 37.6646 3.16602 37.8146L24.5848 49.8908C24.7139 49.9635 24.8571 49.9999 25.0006 49.9999C25.144 49.9999 25.2872 49.9636 25.4164 49.8908L46.8341 37.8146C47.1001 37.6645 47.2647 37.3827 47.2647 37.0773V23.6763C47.2648 23.2088 46.8859 22.8298 46.4184 22.8298ZM27.7164 22.4972L31.8609 16.3734C31.9936 16.1774 32.038 15.9349 31.984 15.7048C31.9298 15.4745 31.7817 15.2777 31.5758 15.1615L25.8472 11.9313V8.04504L36.1634 13.8621C36.2903 13.9337 36.4336 13.9713 36.5792 13.9713C36.585 13.9713 36.5908 13.9713 36.5965 13.9712L43.0716 13.8387L27.7164 22.4972ZM24.7861 1.69749L43.3062 12.1405L36.7933 12.2738L18.2731 1.83079L24.7861 1.69749ZM19.9027 4.69309L24.1542 7.09036V10.9766L16.4567 6.63616L19.9027 4.69309ZM24.7365 23.8795L11.8698 16.6243C11.4627 16.3948 10.9463 16.5387 10.7167 16.946C10.4871 17.3532 10.6311 17.8695 11.0384 18.0991L24.1543 25.4948V47.7045L4.42842 36.5827V14.3722L8.13594 16.4626C8.54287 16.6921 9.05947 16.5483 9.28906 16.1409C9.51865 15.7337 9.37471 15.2175 8.96738 14.9878L4.79824 12.6369L10.006 4.94202L29.9441 16.1847L24.7365 23.8795Z" fill="black"/>
<path d="M38.454 25.0661L36.1468 23.4628C35.9509 23.3266 35.7066 23.2796 35.4741 23.333C35.2416 23.3865 35.0426 23.5354 34.9257 23.7434L32.5446 27.9829C32.3157 28.3905 32.4605 28.9065 32.8681 29.1354C32.9992 29.2091 33.1414 29.244 33.2818 29.244C33.5778 29.244 33.8653 29.0884 34.0206 28.8119L34.8172 27.3936V37.9424C34.8172 38.4097 35.1962 38.7887 35.6637 38.7887C36.1312 38.7887 36.5101 38.4097 36.5101 37.9423V25.7768L37.4879 26.4563C37.8721 26.7232 38.3993 26.628 38.666 26.2442C38.9327 25.8604 38.8378 25.3329 38.454 25.0661Z" fill="black"/>
</g>
<defs>
<clipPath id="clip0_56_2703">
<rect width="50" height="50" fill="white"/>
</clipPath>
</defs>
</svg>
