<svg width="53" height="50" viewBox="0 0 53 50" fill="none" xmlns="http://www.w3.org/2000/svg">
<path fill-rule="evenodd" clip-rule="evenodd" d="M23.8879 7.16509C29.3991 8.1065 34.6237 4.94806 33.0665 1.61556L33.0647 1.61197C25.0155 3.5015 17.8474 1.36548 18.6756 1.55298C17.46 4.45603 20.6125 6.60548 23.8879 7.16509ZM25.8716 21.427C24.6306 21.4921 23.0789 21.7338 22.3366 22.666C21.6433 23.5364 21.4782 25.6882 22.1406 26.6084C22.4949 27.1006 23.0736 27.3858 23.6774 27.566C24.3852 27.7773 25.1308 27.8559 25.8716 27.8909V21.427ZM27.5278 29.4742V36.8257C33.1672 36.4294 32.4711 30.7275 29.3228 29.7623C28.7441 29.5848 28.135 29.5066 27.5278 29.4742ZM25.8716 19.8805C25.8716 18.5317 25.6644 17.5955 26.6997 17.5448C27.2064 17.5692 27.5038 17.8823 27.5278 18.3171V19.8855C31.1582 20.1027 32.4443 21.8763 32.3573 23.362C32.2682 24.3595 30.665 24.3272 30.7052 23.2531C30.751 22.0249 28.8938 21.5269 27.5278 21.4338V27.9284C30.9398 28.096 33.1293 29.5774 33.3125 32.7249C33.5146 36.1889 31.3076 38.1581 27.5278 38.374C27.5278 39.7475 27.6598 40.1747 27.2539 40.5158C26.7639 40.927 25.9138 40.6871 25.8716 39.9419V38.3817C23.8568 38.3059 21.2447 37.8745 20.3628 36.1614C19.2381 33.9792 21.6337 33.5355 21.7356 35.058C21.866 36.4602 24.3806 36.7702 25.8716 36.8352V29.4377C22.1814 29.2685 19.9383 28.0689 20.0843 24.6284C20.219 21.4362 22.1457 20.1116 25.6297 19.8934C25.7103 19.8885 25.791 19.8841 25.8716 19.8805ZM25.3889 9.43368C18.4533 12.9917 10.2504 19.1338 8.16616 26.3492C6.8911 30.7629 7.99823 36.2377 11.608 40.468C28.728 60.5326 66.442 29.8863 26.1645 9.43986C25.906 9.43814 25.6475 9.43603 25.3889 9.43368ZM20.8486 7.87751C15.1256 5.36939 16.35 0.0576689 18.6172 1.25472e-05C19.4453 -0.00553433 24.9693 1.83072 32.2657 0.205169C33.0938 0.0203251 33.8076 -0.0736593 34.3896 0.671263C35.4965 2.08837 35.5479 5.83876 30.8955 7.87619C31.7765 8.0622 31.7536 9.30306 30.7626 9.39837C28.9295 9.45681 29.0198 9.07181 31.8682 10.9031C66.6564 33.2735 27.627 62.2304 10.1644 41.2548C6.38461 36.7146 5.157 30.8281 6.56688 25.9474C8.35944 19.7406 14.107 14.5556 19.7259 10.9031C22.5444 9.07111 22.6699 9.40017 21.0371 9.40017C20.1614 9.37189 19.9208 8.3572 20.6068 7.96798C20.6832 7.9247 20.764 7.89579 20.8486 7.87751Z" fill="black"/>
</svg>
