<svg width="40" height="40" viewBox="0 0 40 40" fill="none" xmlns="http://www.w3.org/2000/svg">
<path d="M5.93745 18.5156H28.7929L15.1132 6.64062C14.8945 6.44922 15.0273 6.09375 15.3164 6.09375H18.7734C18.9257 6.09375 19.0703 6.14844 19.1835 6.24609L33.9453 19.0547C34.0805 19.1719 34.1889 19.3168 34.2632 19.4795C34.3375 19.6423 34.376 19.8191 34.376 19.998C34.376 20.177 34.3375 20.3538 34.2632 20.5166C34.1889 20.6793 34.0805 20.8242 33.9453 20.9414L19.0976 33.8281C19.039 33.8789 18.9687 33.9062 18.8945 33.9062H15.3203C15.0312 33.9062 14.8984 33.5469 15.1171 33.3594L28.7929 21.4844H5.93745C5.76558 21.4844 5.62495 21.3438 5.62495 21.1719V18.8281C5.62495 18.6562 5.76558 18.5156 5.93745 18.5156Z" fill="#4EAD8E"/>
</svg>
