<svg width="52" height="52" viewBox="0 0 52 52" fill="none" xmlns="http://www.w3.org/2000/svg">
<path d="M16.5906 0C11.3977 0 7 4.53903 7 9.91616C7 15.5468 12.0971 21.305 15.5259 25.352C15.5389 25.3683 16.0931 26 16.7759 26H16.8365C17.5193 26 18.0695 25.3683 18.0833 25.352C21.3011 21.5556 26 15.2961 26 9.91616C26 4.53903 22.5697 0 16.5906 0ZM16.9081 24.2621C16.8804 24.2905 16.84 24.3222 16.8044 24.3486C16.768 24.323 16.7284 24.2905 16.6991 24.2621L16.285 23.7734C13.0345 19.9461 8.58333 14.7051 8.58333 9.91616C8.58333 5.42181 12.2503 1.62459 16.5906 1.62459C21.9969 1.62459 24.4167 5.78866 24.4167 9.91616C24.4167 13.5517 21.8901 18.3787 16.9081 24.2621ZM16.5277 4.92009C13.9045 4.92009 11.7777 7.10287 11.7777 9.79509C11.7777 12.4873 13.9045 14.6701 16.5277 14.6701C19.1509 14.6701 21.2777 12.4873 21.2777 9.79509C21.2777 7.10287 19.1509 4.92009 16.5277 4.92009ZM16.5277 13.0451C14.7817 13.0451 13.3246 11.5517 13.3246 9.75934C13.3246 7.96738 14.7452 6.50934 16.4912 6.50934C18.2385 6.50934 19.6579 7.96738 19.6579 9.75934C19.6587 11.5517 18.2749 13.0451 16.5277 13.0451Z" fill="#E03232"/>
<path d="M13.7927 3.98523C13.5569 4.04763 13.4867 4.14885 13.359 4.36432C13.1024 4.79747 12.8544 5.24615 12.7229 5.7353C12.5997 6.19342 12.553 6.7507 12.3594 7.18417C12.2458 7.43828 12.0672 7.66118 11.9439 7.9112C11.7318 8.34148 11.5989 8.82071 11.4558 9.27698C11.1799 10.1564 11.0633 11.1147 11.0845 12.0371C11.1213 13.6392 12.1849 14.8772 12.9877 16.163C13.2369 16.5621 13.4514 16.9871 13.7122 17.3782C13.9868 17.7902 14.336 18.1452 14.6054 18.5622C14.7934 18.8534 14.9292 19.1419 15.0546 19.4554" stroke="#E03232" stroke-width="3" stroke-linecap="round"/>
<path d="M20.8501 3.14392C20.8679 3.32208 21.0338 3.60474 21.0916 3.73074C21.5496 4.7301 21.9858 5.73476 22.2782 6.79726C22.5062 7.62591 22.6059 8.42983 22.5742 9.28474C22.5293 10.498 22.214 11.6697 21.7277 12.7771C21.0206 14.3873 20.1686 15.8685 19.248 17.3626C18.5801 18.4466 18.1437 19.6591 17.4382 20.7173" stroke="#E03232" stroke-width="2" stroke-linecap="round"/>
<path d="M22.7664 5.15369C22.9549 5.15369 23.0341 5.33516 23.1195 5.48864C23.6577 6.45568 23.9294 7.56528 24.249 8.61747C24.4296 9.21172 24.6826 9.81856 24.6826 10.4454C24.6826 10.964 24.5756 11.4367 24.3399 11.8969C24.3227 11.9305 24.224 12.2374 24.1374 12.128C23.8096 11.7139 23.8162 10.9421 23.7998 10.448C23.7907 10.173 23.8473 9.72543 23.7635 10.2793C23.5848 11.4594 23.1542 12.6152 22.6573 13.6963C22.0275 15.0669 21.024 16.249 20.336 17.5937C19.621 18.9912 18.8509 20.3371 18.373 21.8391" stroke="#E03232" stroke-width="2" stroke-linecap="round"/>
<path d="M23.6543 13.4731C23.4917 13.5544 23.3988 13.7743 23.3272 13.9249C23.0149 14.5815 22.7373 15.2236 22.3509 15.8437C21.9427 16.4986 21.4898 17.1382 20.9955 17.7314C19.9697 18.9623 19.2144 20.3992 18.0562 21.5223C17.5826 21.9816 17.2285 22.3425 16.9812 22.9608C16.9358 23.0743 16.9702 23.1191 16.8747 23.2205C16.8101 23.2892 16.7419 23.3384 16.6592 23.3841C16.5357 23.4522 16.547 23.4661 16.3762 23.3347C15.7539 22.856 15.2595 22.1768 14.7482 21.5898C14.1761 20.9331 13.5116 20.3014 12.9929 19.6035C12.7647 19.2964 12.484 18.99 12.484 18.5986C12.484 18.2828 12.2654 18.0406 12.1153 17.7729C11.86 17.3178 11.6498 16.8714 11.3727 16.4279C10.8917 15.6584 10.5069 14.7026 10.3808 13.8002C10.2452 12.8299 9.67823 11.9751 9.51355 11.0063C9.43356 10.5358 9.49277 9.9989 9.49277 9.52112C9.49277 8.68358 9.40205 7.81413 9.67973 7.01286C9.81855 6.61225 9.90136 6.22663 10.1211 5.8574C10.3289 5.5083 10.5488 5.20367 10.8014 4.88369C11.5262 3.9657 12.562 3.29438 13.5953 2.77011C14.2103 2.45807 14.9895 2.38032 15.6596 2.25599C15.9915 2.19439 16.2095 2.11578 16.545 2.11578C17.374 2.11578 18.2116 2.06757 19.0273 2.21964C21.4556 2.67238 22.1763 5.03988 23.3739 6.83629" stroke="#E03232" stroke-width="2" stroke-linecap="round"/>
<path d="M18.4665 3.84507C18.0634 3.84507 17.6913 3.81959 17.2929 3.77237C16.0434 3.62428 14.6538 3.88532 13.476 4.29428C13.0046 4.45796 12.5617 4.7654 12.1465 5.03429C11.7257 5.3069 11.3207 5.59291 10.9807 5.96385C10.5488 6.43496 10.0537 7.09797 10.0537 7.77105" stroke="#E03232" stroke-width="2" stroke-linecap="round"/>
<path d="M18.373 3.33093C19.1485 3.76175 19.8105 4.39456 20.4294 5.01349C20.6975 5.28156 21.0104 5.5222 21.1513 5.88853C21.3495 6.40397 21.5764 6.93464 21.6239 7.49059C21.6644 7.96578 21.6195 8.38895 21.7615 8.84339C21.853 9.13633 21.8587 9.4658 21.9458 9.75997C22.1423 10.4231 22.0111 11.2403 21.8809 11.9073C21.7642 12.5056 21.4876 13.071 21.1409 13.5717C20.9436 13.8566 20.9413 13.2242 20.9436 13.1692C20.9674 12.5821 21.2657 12.0563 21.3097 11.4841C21.3584 10.851 20.7101 12.6039 20.3879 13.1511C19.2399 15.1004 17.5803 16.757 16.68 18.8479C16.5285 19.1999 16.3633 19.5686 16.3633 19.9566C16.3633 20.4002 16.1003 20.5503 15.9634 20.9251C15.9544 20.9498 15.8682 21.1635 15.8803 21.1796C15.9077 21.2161 15.9807 21.158 16.0101 21.2211C16.1024 21.4189 15.9962 21.6054 16.2698 21.6054" stroke="#E03232" stroke-width="2" stroke-linecap="round"/>
<path d="M17.6718 15.2023C17.8105 15.3583 16.9265 15.3613 16.8851 15.3633C15.8913 15.4109 14.9108 15.3672 13.938 15.1504C13.6567 15.0877 13.4186 14.9285 13.198 14.7453C13.0174 14.5953 12.6709 14.3932 12.6709 14.1273" stroke="#E03232" stroke-width="2" stroke-linecap="round"/>
<path d="M11.97 12.585C12.2534 12.6963 12.4947 12.9935 12.697 13.2029C13.09 13.6097 13.4839 14.0339 13.7979 14.5064C14.0061 14.8197 14.2157 15.1084 14.4367 15.41C15.0726 16.2781 15.6268 17.2019 16.0777 18.1857C16.0939 18.2211 16.17 18.4583 16.2361 18.4583C16.2671 18.4583 16.216 18.3991 16.1997 18.3727C16.0963 18.2046 16.1022 18.2372 15.9894 18.0351C15.3465 16.8832 16.6392 16.1414 17.5396 15.6956C17.9364 15.4991 18.1788 15.4031 18.5522 15.1737C18.5828 15.1549 18.9252 14.9619 18.9599 14.8232C18.9755 14.7606 18.7774 14.7816 18.7443 14.7816C18.5894 14.7816 18.4345 14.7816 18.2796 14.7816" stroke="#E03232" stroke-width="2" stroke-linecap="round"/>
<path d="M14.7274 4.54608C14.6775 4.54608 14.4559 4.59282 14.5041 4.59282C14.7079 4.59282 14.8884 4.56397 15.091 4.52012C16.0186 4.31929 16.9392 4.08758 17.8719 3.90993C18.1069 3.86516 18.8428 3.68601 18.952 4.01379C19.0721 4.37408 18.3937 4.25485 18.1886 4.28903C17.8153 4.35124 18.1382 4.45368 18.3211 4.56686C18.6462 4.76816 19.1133 4.82731 19.4012 5.08097C20.06 5.66129 20.7328 6.19299 21.224 6.92971" stroke="#E03232" stroke-width="2" stroke-linecap="round"/>
</svg>
