<svg width="23" height="23" viewBox="0 0 23 23" fill="none" xmlns="http://www.w3.org/2000/svg">
<path d="M7.41715 17.4523L6.14762 21.8984C6.07809 21.7844 6.03121 21.65 6.03121 21.4953V17.1437L16.2578 7.1492L7.41715 17.4523ZM6.82574 22.2703C7.01559 22.2687 7.20778 22.2047 7.36481 22.0476L10.207 19.2047L8.04137 18.1219L6.82574 22.2703ZM21.5273 0.569514L1.97028 10.1922C0.231213 11.0476 0.223401 13.525 1.95699 14.3914L5.77731 16.3015L20.4562 1.96092C20.6156 1.80545 20.8593 1.77811 21.0492 1.89373C21.3039 2.04998 21.3586 2.39686 21.164 2.6242L8.42965 17.4492L15.3359 20.8867C16.7 21.5687 18.3422 20.7867 18.6718 19.2976L22.6336 1.43983C22.7773 0.799982 22.1156 0.280451 21.5273 0.569514Z" fill="#082A52"/>
</svg>
