<svg width="36" height="41" viewBox="0 0 36 41" fill="none" xmlns="http://www.w3.org/2000/svg">
<path d="M4.07312 26.6032C4.25973 27.3738 4.35403 28.1639 4.35403 28.9568V30.8179C4.35403 31.6325 5.02389 32.3113 5.82771 32.3113C6.63153 32.3113 7.30138 31.6325 7.30138 30.8179V27.5596V27.5596C7.30138 27.3281 7.20544 27.1014 7.15061 26.8764L4.488 15.952C4.42102 15.6126 4.488 15.3411 4.62197 15.0695C4.75594 14.798 5.02388 14.5944 5.35881 14.5265L17.7511 13.1349H23.9807L30.1433 14.5265C30.4782 14.5944 30.7462 14.798 30.8801 15.0695C31.0141 15.3411 31.0811 15.6805 31.0141 15.952L28.3499 26.883C28.2953 27.107 28.2007 27.329 28.2007 27.5596V27.5596V30.8179C28.2007 31.6325 28.8706 32.3113 29.6744 32.3113C30.4782 32.3113 31.1481 31.6325 31.1481 30.8179V28.9568C31.1481 28.1639 31.2424 27.3738 31.429 26.6032L33.8275 16.6987C34.0954 15.6126 33.8945 14.4586 33.2916 13.4404C32.6887 12.4222 31.7509 11.8113 30.6792 11.5397V11.5397C29.937 11.3814 29.4065 10.7258 29.4065 9.96686V4.9553C29.4065 2.24007 27.196 0 24.5166 0H10.9856C8.30616 0 6.09565 2.24007 6.09565 4.9553V9.96685C6.09565 10.7258 5.56514 11.3814 4.82293 11.5397V11.5397C3.68418 11.8113 2.74639 12.4901 2.21051 13.4404C1.60764 14.3907 1.40669 15.5447 1.67463 16.6987L4.07312 26.6032ZM9.10998 4.9553C9.10998 3.86921 9.98078 3.05464 10.9856 3.05464H24.6505C25.7223 3.05464 26.5261 3.93709 26.5261 4.9553V4.9553C26.5261 7.84161 23.8465 9.98114 21.0318 9.34222L18.153 8.68874C17.952 8.62086 17.6841 8.62086 17.4831 8.68874L14.6043 9.34222C11.7896 9.98114 9.10998 7.84161 9.10998 4.9553V4.9553ZM34.0284 34.5513C31.9519 34.5513 30.8801 35.9089 30.1433 36.8593C29.4735 37.7417 29.2055 38.0132 28.6026 38.0132C27.9998 38.0132 27.7318 37.7417 27.062 36.8593C26.3252 35.9089 25.2534 34.5513 23.1769 34.5513C21.1003 34.5513 20.0286 35.9089 19.2917 36.8593C18.6219 37.7417 18.3539 38.0132 17.7511 38.0132C17.1482 38.0132 16.8803 37.7417 16.2104 36.8593C15.4736 35.9089 14.4018 34.5513 12.3253 34.5513C10.2487 34.5513 9.17696 35.9089 8.44013 36.8593C7.77028 37.7417 7.50233 38.0132 6.89947 38.0132C6.36359 38.0132 6.02866 37.7417 5.35881 36.8593C4.62197 35.9089 3.55021 34.5513 1.47367 34.5513C0.669851 34.5513 0 35.2301 0 36.0447C0 36.8593 0.669851 37.5381 1.47367 37.5381C2.00955 37.5381 2.34448 37.8096 3.01433 38.6921C3.75117 39.6424 4.82293 41 6.89947 41C8.97601 41 10.0478 39.6424 10.7846 38.6921C11.4545 37.8096 11.7224 37.5381 12.3253 37.5381C12.9281 37.5381 13.1961 37.8096 13.8659 38.6921C14.6028 39.6424 15.6745 41 17.7511 41C19.8276 41 20.8994 39.6424 21.6362 38.6921C22.306 37.8096 22.574 37.5381 23.1769 37.5381C23.7797 37.5381 24.0477 37.8096 24.7175 38.6921C25.4543 39.6424 26.5261 41 28.6026 41C30.6792 41 31.751 39.6424 32.4878 38.6921C33.1576 37.8096 33.4256 37.5381 34.0284 37.5381C34.8323 37.5381 35.5021 36.8593 35.5021 36.0447C35.5021 35.2301 34.8323 34.5513 34.0284 34.5513Z" fill="#082A52"/>
</svg>
