<svg width="40" height="40" viewBox="0 0 40 40" fill="none" xmlns="http://www.w3.org/2000/svg">
<path fill-rule="evenodd" clip-rule="evenodd" d="M36.6341 31.3542C36.6521 31.439 36.6627 31.5249 36.6658 31.6116L36.6668 31.6667V33.3334C36.6668 35.1743 33.309 36.6667 29.1668 36.6667C25.0661 36.6667 21.7341 35.204 21.6678 33.3885L21.6668 33.3334V31.6667L21.6678 31.6116C21.671 31.5251 21.6816 31.4394 21.6993 31.3547C22.1586 31.6999 22.7178 32.0183 23.3658 32.2909C24.8782 32.9271 26.9175 33.3334 29.1668 33.3334C31.5053 33.3334 33.6166 32.8936 35.147 32.2134C35.7191 31.9591 36.2171 31.6679 36.6341 31.3542ZM18.3335 2.68335L33.3335 11.0167L33.3336 17.1668C32.1049 16.8514 30.6836 16.6667 29.1668 16.6667C26.8826 16.6667 24.815 17.0866 23.2897 17.7645C21.2011 18.6928 20.1379 20.1124 20.0035 21.549L19.9997 21.5925L20.0092 35.0857L18.3335 36.0167L3.3335 27.6833V11.0167L18.3335 2.68335ZM36.6341 26.3542C36.6521 26.439 36.6627 26.5249 36.6658 26.6116L36.6668 26.6667V28.3334C36.6668 30.1743 33.309 31.6667 29.1668 31.6667C25.0661 31.6667 21.7341 30.204 21.6678 28.3885L21.6668 28.3334V26.6667L21.6678 26.6116C21.671 26.5251 21.6816 26.4394 21.6993 26.3547C22.1586 26.6999 22.7178 27.0183 23.3658 27.2909C24.8782 27.9271 26.9175 28.3334 29.1668 28.3334C31.5053 28.3334 33.6166 27.8936 35.147 27.2134C35.7191 26.9591 36.2171 26.6679 36.6341 26.3542ZM13.3334 18.2387L13.3335 29.5354L16.6668 31.3873V20.0905L13.3334 18.2387ZM6.66683 14.5351V25.8315L10.0001 27.6834V16.3869L6.66683 14.5351ZM29.1668 18.3334C33.2675 18.3334 36.5996 19.796 36.6658 21.6116L36.6668 21.6667V23.3334C36.6668 25.1743 33.309 26.6667 29.1668 26.6667C25.0661 26.6667 21.7341 25.204 21.6678 23.3885L21.6668 23.3334V21.6667L21.6779 21.4838C21.8916 19.7279 25.1628 18.3334 29.1668 18.3334ZM24.8953 10.0325L15.0844 15.508L18.3335 17.313L28.1668 11.85L24.8953 10.0325ZM18.3335 6.38705L8.50016 11.85L11.755 13.6583L21.5658 8.1828L18.3335 6.38705Z" fill="#5C7394"/>
</svg>
