<svg width="40" height="40" viewBox="0 0 40 40" fill="none" xmlns="http://www.w3.org/2000/svg">
<path d="M14.9998 16.6666H16.6665C17.1085 16.6666 17.5325 16.4911 17.845 16.1785C18.1576 15.8659 18.3332 15.442 18.3332 15C18.3332 14.558 18.1576 14.134 17.845 13.8215C17.5325 13.5089 17.1085 13.3333 16.6665 13.3333H14.9998C14.5578 13.3333 14.1339 13.5089 13.8213 13.8215C13.5088 14.134 13.3332 14.558 13.3332 15C13.3332 15.442 13.5088 15.8659 13.8213 16.1785C14.1339 16.4911 14.5578 16.6666 14.9998 16.6666ZM14.9998 20C14.5578 20 14.1339 20.1756 13.8213 20.4881C13.5088 20.8007 13.3332 21.2246 13.3332 21.6666C13.3332 22.1087 13.5088 22.5326 13.8213 22.8452C14.1339 23.1577 14.5578 23.3333 14.9998 23.3333H24.9998C25.4419 23.3333 25.8658 23.1577 26.1783 22.8452C26.4909 22.5326 26.6665 22.1087 26.6665 21.6666C26.6665 21.2246 26.4909 20.8007 26.1783 20.4881C25.8658 20.1756 25.4419 20 24.9998 20H14.9998ZM33.3332 14.9C33.3158 14.7469 33.2823 14.596 33.2332 14.45V14.3C33.153 14.1286 33.0461 13.9711 32.9165 13.8333L22.9165 3.83331C22.7787 3.70367 22.6212 3.59678 22.4498 3.51665C22.4001 3.50958 22.3496 3.50958 22.2998 3.51665C22.1305 3.41955 21.9435 3.35722 21.7498 3.33331H11.6665C10.3404 3.33331 9.06865 3.8601 8.13097 4.79778C7.19329 5.73546 6.6665 7.00723 6.6665 8.33331V31.6666C6.6665 32.9927 7.19329 34.2645 8.13097 35.2022C9.06865 36.1399 10.3404 36.6666 11.6665 36.6666H28.3332C29.6593 36.6666 30.931 36.1399 31.8687 35.2022C32.8064 34.2645 33.3332 32.9927 33.3332 31.6666V15C33.3332 15 33.3332 15 33.3332 14.9ZM23.3332 9.01665L27.6498 13.3333H24.9998C24.5578 13.3333 24.1339 13.1577 23.8213 12.8452C23.5088 12.5326 23.3332 12.1087 23.3332 11.6666V9.01665ZM29.9998 31.6666C29.9998 32.1087 29.8242 32.5326 29.5117 32.8452C29.1991 33.1577 28.7752 33.3333 28.3332 33.3333H11.6665C11.2245 33.3333 10.8006 33.1577 10.488 32.8452C10.1754 32.5326 9.99984 32.1087 9.99984 31.6666V8.33331C9.99984 7.89129 10.1754 7.46736 10.488 7.1548C10.8006 6.84224 11.2245 6.66665 11.6665 6.66665H19.9998V11.6666C19.9998 12.9927 20.5266 14.2645 21.4643 15.2022C22.402 16.1399 23.6738 16.6666 24.9998 16.6666H29.9998V31.6666ZM24.9998 26.6666H14.9998C14.5578 26.6666 14.1339 26.8422 13.8213 27.1548C13.5088 27.4674 13.3332 27.8913 13.3332 28.3333C13.3332 28.7753 13.5088 29.1993 13.8213 29.5118C14.1339 29.8244 14.5578 30 14.9998 30H24.9998C25.4419 30 25.8658 29.8244 26.1783 29.5118C26.4909 29.1993 26.6665 28.7753 26.6665 28.3333C26.6665 27.8913 26.4909 27.4674 26.1783 27.1548C25.8658 26.8422 25.4419 26.6666 24.9998 26.6666Z" fill="#5C7394"/>
</svg>
