<svg width="42" height="43" viewBox="0 0 42 43" fill="none" xmlns="http://www.w3.org/2000/svg">
<path d="M21.9136 41.5067L21.8731 41.5H21.832H5C2.52663 41.5 0.5 39.4734 0.5 37V5C0.5 2.52663 2.52663 0.5 5 0.5H37C39.4734 0.5 41.5 2.52663 41.5 5V37C41.5 39.4734 39.4734 41.5 37 41.5H28.1582H28.1172L28.0767 41.5067C28.0227 41.5156 27.9676 41.5156 27.9136 41.5067L27.8731 41.5H27.832H22.1582H22.1172L22.0767 41.5067C22.0227 41.5156 21.9676 41.5156 21.9136 41.5067ZM28.5 40V40.5H29H37C38.9446 40.5 40.5 38.9446 40.5 37V5C40.5 3.05537 38.9446 1.5 37 1.5H5C3.05537 1.5 1.5 3.05537 1.5 5V37C1.5 38.9446 3.05537 40.5 5 40.5H21H21.5V40V26V25.5H21H18.5V19.5H21H21.5V19V17C21.5 14.9097 22.0174 13.052 23.1092 11.6873C24.189 10.3375 25.8885 9.5 28 9.5C29.5092 9.5 30.8197 9.76464 31.7529 10.0298C32.2189 10.1622 32.5889 10.2942 32.8404 10.3921C32.9661 10.441 33.062 10.4814 33.1253 10.5089C33.1569 10.5227 33.1803 10.5333 33.1953 10.5401L33.2112 10.5474L33.2141 10.5488L33.2143 10.5489L33.2145 10.549L33.2146 10.549L33.2148 10.5491L33.5 10.6849V15.5H31C30.4779 15.5 30.0538 15.5408 29.7264 15.6014C29.4165 15.6589 29.146 15.7424 28.9679 15.858C28.9644 15.8603 28.9609 15.8626 28.9572 15.865C28.8614 15.9269 28.6794 16.0445 28.583 16.2965C28.5081 16.4922 28.5 16.7354 28.5 17V19V19.5H29H33.6108L32.4104 25.5H29H28.5V26V40ZM32.5 11.7012V11.3615L32.1842 11.2363C31.5308 10.9775 30.1588 10.5 28 10.5C26.1124 10.5 24.8114 11.1619 23.8908 12.3127C22.9824 13.4481 22.5 15.0906 22.5 17V20.5H20H19.5V21V24V24.5H20H22.5V40V40.5H23H27H27.5V40V24.5H31.1797H31.5896L31.67 24.098L32.2696 21.098L32.3891 20.5H31.7793H27.5V17C27.5 16.1732 27.8305 15.4036 28.4227 15.0189C29.0676 14.6 29.8593 14.5 31 14.5H32H32.5V14V11.7012Z" fill="#ffffff"/>
<path d="M21.9136 41.5067L21.8731 41.5H21.832H5C2.52663 41.5 0.5 39.4734 0.5 37V5C0.5 2.52663 2.52663 0.5 5 0.5H37C39.4734 0.5 41.5 2.52663 41.5 5V37C41.5 39.4734 39.4734 41.5 37 41.5H28.1582H28.1172L28.0767 41.5067C28.0227 41.5156 27.9676 41.5156 27.9136 41.5067L27.8731 41.5H27.832H22.1582H22.1172L22.0767 41.5067C22.0227 41.5156 21.9676 41.5156 21.9136 41.5067ZM28.5 40V40.5H29H37C38.9446 40.5 40.5 38.9446 40.5 37V5C40.5 3.05537 38.9446 1.5 37 1.5H5C3.05537 1.5 1.5 3.05537 1.5 5V37C1.5 38.9446 3.05537 40.5 5 40.5H21H21.5V40V26V25.5H21H18.5V19.5H21H21.5V19V17C21.5 14.9097 22.0174 13.052 23.1092 11.6873C24.189 10.3375 25.8885 9.5 28 9.5C29.5092 9.5 30.8197 9.76464 31.7529 10.0298C32.2189 10.1622 32.5889 10.2942 32.8404 10.3921C32.9661 10.441 33.062 10.4814 33.1253 10.5089C33.1569 10.5227 33.1803 10.5333 33.1953 10.5401L33.2112 10.5474L33.2141 10.5488L33.2143 10.5489L33.2145 10.549L33.2146 10.549L33.2148 10.5491L33.5 10.6849V15.5H31C30.4779 15.5 30.0538 15.5408 29.7264 15.6014C29.4165 15.6589 29.146 15.7424 28.9679 15.858C28.9644 15.8603 28.9609 15.8626 28.9572 15.865C28.8614 15.9269 28.6794 16.0445 28.583 16.2965C28.5081 16.4922 28.5 16.7354 28.5 17V19V19.5H29H33.6108L32.4104 25.5H29H28.5V26V40ZM32.5 11.7012V11.3615L32.1842 11.2363C31.5308 10.9775 30.1588 10.5 28 10.5C26.1124 10.5 24.8114 11.1619 23.8908 12.3127C22.9824 13.4481 22.5 15.0906 22.5 17V20.5H20H19.5V21V24V24.5H20H22.5V40V40.5H23H27H27.5V40V24.5H31.1797H31.5896L31.67 24.098L32.2696 21.098L32.3891 20.5H31.7793H27.5V17C27.5 16.1732 27.8305 15.4036 28.4227 15.0189C29.0676 14.6 29.8593 14.5 31 14.5H32H32.5V14V11.7012Z" fill="#ffffff" fill-opacity="0.2"/>
<path d="M21.9136 41.5067L21.8731 41.5H21.832H5C2.52663 41.5 0.5 39.4734 0.5 37V5C0.5 2.52663 2.52663 0.5 5 0.5H37C39.4734 0.5 41.5 2.52663 41.5 5V37C41.5 39.4734 39.4734 41.5 37 41.5H28.1582H28.1172L28.0767 41.5067C28.0227 41.5156 27.9676 41.5156 27.9136 41.5067L27.8731 41.5H27.832H22.1582H22.1172L22.0767 41.5067C22.0227 41.5156 21.9676 41.5156 21.9136 41.5067ZM28.5 40V40.5H29H37C38.9446 40.5 40.5 38.9446 40.5 37V5C40.5 3.05537 38.9446 1.5 37 1.5H5C3.05537 1.5 1.5 3.05537 1.5 5V37C1.5 38.9446 3.05537 40.5 5 40.5H21H21.5V40V26V25.5H21H18.5V19.5H21H21.5V19V17C21.5 14.9097 22.0174 13.052 23.1092 11.6873C24.189 10.3375 25.8885 9.5 28 9.5C29.5092 9.5 30.8197 9.76464 31.7529 10.0298C32.2189 10.1622 32.5889 10.2942 32.8404 10.3921C32.9661 10.441 33.062 10.4814 33.1253 10.5089C33.1569 10.5227 33.1803 10.5333 33.1953 10.5401L33.2112 10.5474L33.2141 10.5488L33.2143 10.5489L33.2145 10.549L33.2146 10.549L33.2148 10.5491L33.5 10.6849V15.5H31C30.4779 15.5 30.0538 15.5408 29.7264 15.6014C29.4165 15.6589 29.146 15.7424 28.9679 15.858C28.9644 15.8603 28.9609 15.8626 28.9572 15.865C28.8614 15.9269 28.6794 16.0445 28.583 16.2965C28.5081 16.4922 28.5 16.7354 28.5 17V19V19.5H29H33.6108L32.4104 25.5H29H28.5V26V40ZM32.5 11.7012V11.3615L32.1842 11.2363C31.5308 10.9775 30.1588 10.5 28 10.5C26.1124 10.5 24.8114 11.1619 23.8908 12.3127C22.9824 13.4481 22.5 15.0906 22.5 17V20.5H20H19.5V21V24V24.5H20H22.5V40V40.5H23H27H27.5V40V24.5H31.1797H31.5896L31.67 24.098L32.2696 21.098L32.3891 20.5H31.7793H27.5V17C27.5 16.1732 27.8305 15.4036 28.4227 15.0189C29.0676 14.6 29.8593 14.5 31 14.5H32H32.5V14V11.7012Z" stroke="#ffffff"/>
</svg>
