<svg width="40" height="40" viewBox="0 0 40 40" fill="none" xmlns="http://www.w3.org/2000/svg">
<path d="M29.5637 33.6862C26.8483 36.7169 23.079 38.4631 19.2175 38.4631C18.1944 38.4631 17.1714 38.3323 16.179 38.0862C13.4406 37.4092 11.1021 35.9169 9.21751 33.6477C9.15597 33.5708 3.94058 26.8785 8.77904 18.8939C9.04058 18.4708 9.33289 18.0862 9.56366 17.7938C11.6714 15.14 13.7329 11.4708 12.6098 9.8477C12.5227 9.71917 12.4767 9.56715 12.4781 9.41188C12.4795 9.25661 12.5281 9.10543 12.6175 8.97846C12.7944 8.70923 13.1252 8.58616 13.4329 8.67077C13.7329 8.74 16.056 9.47077 16.556 14.0708C17.0637 12.9938 17.5098 11.5554 17.4021 9.91693C17.2406 7.43231 15.879 5.07077 13.3483 2.88616C13.2159 2.77176 13.1268 2.61533 13.096 2.44307C13.0652 2.27082 13.0945 2.09321 13.179 1.94C13.3483 1.62462 13.7252 1.46308 14.0637 1.57077C14.2406 1.61693 30.679 6.60154 28.1867 23.64C29.1483 22.6092 30.2175 20.6092 29.956 16.9477C29.9329 16.5862 30.156 16.2631 30.4944 16.1554C30.8406 16.0477 31.2098 16.1938 31.3867 16.5015C31.4406 16.5938 36.6329 25.7862 29.5637 33.6862Z" fill="#5C7394"/>
</svg>
