<svg width="50" height="50" viewBox="0 0 50 50" fill="none" xmlns="http://www.w3.org/2000/svg">
<path d="M9 4C6.25048 4 4 6.25048 4 9V41C4 43.7495 6.25048 46 9 46H41C43.7495 46 46 43.7495 46 41V9C46 6.25048 43.7495 4 41 4H9ZM9 6H41C42.6685 6 44 7.33152 44 9V41C44 42.6685 42.6685 44 41 44H9C7.33152 44 6 42.6685 6 41V9C6 7.33152 7.33152 6 9 6ZM14 11.0117C12.9048 11.0117 11.9192 11.3391 11.1895 11.9531C10.4597 12.5672 10.0117 13.4845 10.0117 14.4668C10.0117 16.334 11.6313 17.7896 13.6914 17.9336L13.6953 17.9355C13.7935 17.969 13.8963 17.9868 14 17.9883C16.273 17.9883 17.9883 16.3961 17.9883 14.4668C17.9881 14.4492 17.9874 14.4316 17.9863 14.4141C17.8846 12.5138 16.1904 11.0117 14 11.0117ZM14 12.9883C15.3922 12.9883 15.942 13.61 16.002 14.4922C15.9898 15.3484 15.4601 16.0117 14 16.0117C12.6146 16.0117 11.9883 15.3022 11.9883 14.4668C11.9883 14.0491 12.1407 13.7343 12.4609 13.4648C12.7812 13.1954 13.2952 12.9883 14 12.9883ZM11 19C10.7348 19 10.4805 19.1054 10.2929 19.2929C10.1054 19.4805 10 19.7348 10 20V39C10 39.2652 10.1054 39.5195 10.2929 39.7071C10.4805 39.8946 10.7348 40 11 40H17C17.2652 40 17.5195 39.8946 17.7071 39.7071C17.8946 39.5195 18 39.2652 18 39V33.1348V20C18 19.7348 17.8946 19.4805 17.7071 19.2929C17.5195 19.1054 17.2652 19 17 19H11ZM20 19C19.7348 19 19.4805 19.1054 19.2929 19.2929C19.1054 19.4805 19 19.7348 19 20V39C19 39.2652 19.1054 39.5195 19.2929 39.7071C19.4805 39.8946 19.7348 40 20 40H26C26.2652 40 26.5195 39.8946 26.7071 39.7071C26.8946 39.5195 27 39.2652 27 39V29C27 28.1703 27.2264 27.345 27.625 26.8047C28.0236 26.2643 28.5265 25.9401 29.4824 25.957C30.4682 25.974 30.99 26.3117 31.3848 26.8418C31.7795 27.3719 32 28.1667 32 29V39C32 39.2652 32.1054 39.5195 32.2929 39.7071C32.4805 39.8946 32.7348 40 33 40H39C39.2652 40 39.5195 39.8946 39.7071 39.7071C39.8946 39.5195 40 39.2652 40 39V28.2617C40 25.3002 39.1228 22.9543 37.6191 21.3672C36.1155 19.78 34.0242 19 31.8125 19C29.7105 19 28.1109 19.7049 27 20.4238V20C27 19.7348 26.8946 19.4805 26.7071 19.2929C26.5195 19.1054 26.2652 19 26 19H20ZM12 21H16V33.1348V38H12V21ZM21 21H25V22.5605C25.0001 22.7702 25.066 22.9746 25.1886 23.1447C25.3111 23.3149 25.4841 23.4422 25.6829 23.5087C25.8818 23.5752 26.0965 23.5775 26.2968 23.5153C26.497 23.4531 26.6726 23.3296 26.7988 23.1621C26.7988 23.1621 28.3692 21 31.8125 21C33.5658 21 35.0694 21.5826 36.168 22.7422C37.2666 23.9018 38 25.6883 38 28.2617V38H34V29C34 27.8333 33.7205 26.6271 32.9902 25.6465C32.26 24.6659 31.0318 23.9831 29.5176 23.957C27.9955 23.93 26.7475 24.627 26.0156 25.6191C25.2837 26.6113 25 27.8297 25 29V38H21V21Z" fill="#ffffff"/>
</svg>
